<svg width="150" height="150" viewBox="0 0 150 150" fill="none" xmlns="http://www.w3.org/2000/svg">
<path fill-rule="evenodd" clip-rule="evenodd" d="M70.1865 0.0875145C70.1865 0.140986 69.7785 0.175029 69.1365 0.175029C68.495 0.175029 68.0865 0.209073 68.0865 0.262544C68.0865 0.31444 67.7655 0.350058 67.2985 0.350058C66.832 0.350058 66.511 0.385677 66.511 0.437573C66.511 0.488594 66.2195 0.52509 65.811 0.52509C65.4025 0.52509 65.111 0.56158 65.111 0.6126C65.111 0.66126 64.8775 0.700115 64.586 0.700115C64.294 0.700115 64.0605 0.738975 64.0605 0.78763C64.0605 0.8376 63.798 0.875145 63.448 0.875145C63.098 0.875145 62.8355 0.91269 62.8355 0.96266C62.8355 1.01263 62.573 1.05017 62.223 1.05017C61.873 1.05017 61.6105 1.08772 61.6105 1.13769C61.6105 1.18583 61.4135 1.2252 61.1725 1.2252C60.932 1.2252 60.735 1.26459 60.735 1.31272C60.735 1.36138 60.5015 1.40023 60.21 1.40023C59.9185 1.40023 59.685 1.43909 59.685 1.48775C59.685 1.53588 59.5275 1.57526 59.335 1.57526C59.1425 1.57526 58.985 1.61464 58.985 1.66277C58.985 1.71091 58.8275 1.75029 58.635 1.75029C58.442 1.75029 58.2845 1.78968 58.2845 1.83781C58.2845 1.88594 58.088 1.92532 57.847 1.92532C57.6065 1.92532 57.4095 1.9647 57.4095 2.01283C57.4095 2.06097 57.252 2.10035 57.0595 2.10035C56.867 2.10035 56.7095 2.13973 56.7095 2.18786C56.7095 2.236 56.5915 2.27538 56.447 2.27538C56.3025 2.27538 56.1845 2.31476 56.1845 2.3629C56.1845 2.41103 55.9875 2.45041 55.747 2.45041C55.506 2.45041 55.309 2.48979 55.309 2.53792C55.309 2.58605 55.191 2.62544 55.0465 2.62544C54.9025 2.62544 54.784 2.66482 54.784 2.71295C54.784 2.76109 54.666 2.80046 54.5215 2.80046C54.377 2.80046 54.259 2.83985 54.259 2.88798C54.259 2.93612 54.1015 2.97549 53.909 2.97549C53.7165 2.97549 53.559 3.01487 53.559 3.06301C53.559 3.11114 53.441 3.15053 53.2965 3.15053C53.152 3.15053 53.034 3.1899 53.034 3.23804C53.034 3.28617 52.8765 3.32556 52.684 3.32556C52.491 3.32556 52.3335 3.36494 52.3335 3.41307C52.3335 3.4612 52.255 3.50058 52.1585 3.50058C52.0625 3.50058 51.9835 3.53997 51.9835 3.5881C51.9835 3.63623 51.826 3.67561 51.6335 3.67561C51.441 3.67561 51.2835 3.71499 51.2835 3.76312C51.2835 3.81126 51.1655 3.85064 51.021 3.85064C50.8765 3.85064 50.7585 3.89002 50.7585 3.93815C50.7585 3.98629 50.6405 4.02567 50.496 4.02567C50.3515 4.02567 50.2335 4.06505 50.2335 4.11319C50.2335 4.16132 50.1545 4.2007 50.0585 4.2007C49.9621 4.2007 49.8833 4.24008 49.8833 4.28822C49.8833 4.33635 49.7652 4.37573 49.6208 4.37573C49.4764 4.37573 49.3582 4.41511 49.3582 4.46324C49.3582 4.51137 49.2401 4.55076 49.0957 4.55076C48.9513 4.55076 48.8332 4.59014 48.8332 4.63827C48.8332 4.6864 48.715 4.72579 48.5706 4.72579C48.4262 4.72579 48.308 4.76517 48.308 4.8133C48.308 4.86144 48.1899 4.90081 48.0455 4.90081C47.9011 4.90081 47.783 4.9402 47.783 4.98833C47.783 5.03645 47.7042 5.07585 47.608 5.07585C47.5117 5.07585 47.4329 5.11525 47.4329 5.16335C47.4329 5.2115 47.3542 5.2509 47.2579 5.2509C47.1616 5.2509 47.0828 5.29025 47.0828 5.3384C47.0828 5.3865 47.0041 5.4259 46.9078 5.4259C46.8116 5.4259 46.7328 5.4653 46.7328 5.5134C46.7328 5.56155 46.6147 5.60095 46.4703 5.60095C46.3259 5.60095 46.2077 5.6403 46.2077 5.68845C46.2077 5.7366 46.1289 5.77595 46.0326 5.77595C45.9364 5.77595 45.8576 5.81535 45.8576 5.8635C45.8576 5.9116 45.7789 5.951 45.6826 5.951C45.5864 5.951 45.5076 5.99035 45.5076 6.0385C45.5076 6.08665 45.3895 6.126 45.2451 6.126C45.1007 6.126 44.9825 6.1654 44.9825 6.21355C44.9825 6.26165 44.8643 6.30105 44.7199 6.30105C44.5755 6.30105 44.4574 6.34045 44.4574 6.38855C44.4574 6.4367 44.3786 6.4761 44.2824 6.4761C44.1861 6.4761 44.1074 6.51545 44.1074 6.5636C44.1074 6.61175 44.0286 6.6511 43.9323 6.6511C43.836 6.6511 43.7573 6.6905 43.7573 6.7386C43.7573 6.78675 43.6785 6.82615 43.5822 6.82615C43.486 6.82615 43.4072 6.8655 43.4072 6.91365C43.4072 6.9618 43.3284 7.00115 43.2322 7.00115C43.1359 7.00115 43.0572 7.04055 43.0572 7.0887C43.0572 7.1368 42.9784 7.1762 42.8822 7.1762C42.7859 7.1762 42.7071 7.2156 42.7071 7.2637C42.7071 7.31185 42.5889 7.35125 42.4445 7.35125C42.3001 7.35125 42.182 7.3906 42.182 7.43875C42.182 7.48685 42.1032 7.52625 42.007 7.52625C41.9107 7.52625 41.832 7.56565 41.832 7.61375C41.832 7.6619 41.7532 7.7013 41.657 7.7013C41.5607 7.7013 41.4819 7.74065 41.4819 7.7888C41.4819 7.83695 41.4032 7.8763 41.3069 7.8763C41.2106 7.8763 41.1318 7.9157 41.1318 7.96385C41.1318 8.01195 41.0617 8.05135 40.9761 8.05135C40.8905 8.05135 40.7637 8.1301 40.6943 8.22635C40.6249 8.32265 40.4981 8.4014 40.4124 8.4014C40.3268 8.4014 40.2567 8.4408 40.2567 8.4889C40.2567 8.53705 40.178 8.57645 40.0817 8.57645C39.9854 8.57645 39.9066 8.6158 39.9066 8.66395C39.9066 8.7121 39.8279 8.75145 39.7316 8.75145C39.6354 8.75145 39.5566 8.79085 39.5566 8.83895C39.5566 8.8871 39.4865 8.9265 39.4009 8.9265C39.3152 8.9265 39.1884 9.00525 39.119 9.1015C39.0496 9.1978 38.9228 9.27655 38.8371 9.27655C38.7515 9.27655 38.6814 9.31595 38.6814 9.36405C38.6814 9.4122 38.572 9.4516 38.4383 9.4516C38.2954 9.4516 38.143 9.52385 38.0689 9.6266C37.9995 9.72285 37.8727 9.80165 37.787 9.80165C37.7014 9.80165 37.6312 9.841 37.6312 9.88915C37.6312 9.9373 37.5525 9.97665 37.4563 9.97665C37.36 9.97665 37.2812 10.0161 37.2812 10.0642C37.2812 10.1123 37.2183 10.1517 37.1413 10.1517C37.0643 10.1517 36.891 10.2698 36.7562 10.4142C36.6213 10.5586 36.4479 10.6768 36.3709 10.6768C36.2939 10.6768 36.2311 10.7161 36.2311 10.7643C36.2311 10.8124 36.1523 10.8518 36.056 10.8518C35.9598 10.8518 35.881 10.8912 35.881 10.9393C35.881 10.9875 35.8022 11.0268 35.706 11.0268C35.6097 11.0268 35.5309 11.0662 35.5309 11.1144C35.5309 11.1625 35.4688 11.2019 35.3928 11.2019C35.3167 11.2019 35.1034 11.3594 34.9183 11.5519C34.7124 11.7662 34.502 11.902 34.3757 11.902C34.2622 11.902 34.1125 11.9808 34.0431 12.077C33.9737 12.1733 33.8557 12.252 33.7807 12.252C33.7057 12.252 33.5875 12.3308 33.5181 12.427C33.4487 12.5233 33.3377 12.6021 33.2713 12.6021C33.2051 12.6021 33.0403 12.7203 32.9055 12.8647C32.7706 13.0091 32.6059 13.1272 32.5396 13.1272C32.4733 13.1272 32.3623 13.2059 32.2929 13.3022C32.2235 13.3985 32.1054 13.4773 32.0304 13.4773C31.9554 13.4773 31.8372 13.556 31.7678 13.6523C31.6984 13.7485 31.5716 13.8273 31.4859 13.8273C31.3626 13.8273 31.3302 13.9001 31.3302 14.1773V14.5274H31.8553C32.147 14.5274 32.3804 14.5663 32.3804 14.615C32.3804 14.6694 32.8763 14.7025 33.6931 14.7025C34.5099 14.7025 35.0059 14.7355 35.0059 14.7899C35.0059 14.8444 35.5018 14.8775 36.3186 14.8775C37.1354 14.8775 37.6312 14.9106 37.6312 14.965C37.6312 15.0199 38.1855 15.0525 39.119 15.0525C40.0526 15.0525 40.6068 15.0852 40.6068 15.14C40.6068 15.1933 41.0019 15.2276 41.6171 15.2276C42.5732 15.2276 42.6391 15.216 42.8424 15.0127C42.9605 14.8946 43.0572 14.737 43.0572 14.6626C43.0572 14.5882 43.0965 14.5274 43.1447 14.5274C43.1928 14.5274 43.2322 14.4656 43.2322 14.39C43.2322 14.1833 43.454 14.0024 43.7073 14.0024C43.831 14.0024 43.9323 13.9629 43.9323 13.9148C43.9323 13.8667 44.0111 13.8273 44.1074 13.8273C44.2036 13.8273 44.2824 13.8667 44.2824 13.9148C44.2824 13.9719 45.6826 14.0024 48.308 14.0024C50.9335 14.0024 52.3335 13.9719 52.3335 13.9148C52.3335 13.8667 52.5305 13.8273 52.7715 13.8273C53.012 13.8273 53.209 13.8667 53.209 13.9148C53.209 13.9629 53.2875 14.0024 53.384 14.0024C53.48 14.0024 53.559 13.9629 53.559 13.9148C53.559 13.8667 53.756 13.8273 53.9965 13.8273C54.237 13.8273 54.434 13.8667 54.434 13.9148C54.434 13.9629 54.552 14.0024 54.6965 14.0024C54.901 14.0024 54.959 14.0412 54.959 14.1773C54.959 14.2736 54.9985 14.3524 55.0465 14.3524C55.099 14.3524 55.134 14.7025 55.134 15.2276C55.134 15.7527 55.169 16.1027 55.2215 16.1027C55.27 16.1027 55.309 16.1814 55.309 16.2777C55.309 16.3943 55.3675 16.4527 55.484 16.4527C55.5805 16.4527 55.6595 16.4921 55.6595 16.5402C55.6595 16.5982 60.2975 16.6278 69.399 16.6278C78.5005 16.6278 83.139 16.5982 83.139 16.5402C83.139 16.4838 84.1015 16.4527 85.852 16.4527C87.602 16.4527 88.565 16.4838 88.565 16.5402C88.565 16.5884 88.683 16.6278 88.8275 16.6278C88.9715 16.6278 89.09 16.5884 89.09 16.5402C89.09 16.4864 89.5275 16.4527 90.2275 16.4527C90.9275 16.4527 91.365 16.4864 91.365 16.5402C91.365 16.6812 118.465 16.6594 118.531 16.5184C118.572 16.4308 118.592 16.4308 118.633 16.5184C118.671 16.5991 119.048 16.6278 120.077 16.6278H121.47V16.4067C121.47 16.1815 120.788 15.4025 120.59 15.4025C120.537 15.4025 120.342 15.245 120.157 15.0525C119.972 14.86 119.768 14.7025 119.703 14.7025C119.637 14.7025 119.527 14.6237 119.458 14.5274C119.388 14.4311 119.277 14.3524 119.211 14.3524C119.145 14.3524 118.979 14.2343 118.845 14.0899C118.71 13.9455 118.537 13.8273 118.46 13.8273C118.383 13.8273 118.32 13.7879 118.32 13.7398C118.32 13.6917 118.257 13.6523 118.181 13.6523C118.105 13.6523 117.892 13.4947 117.707 13.3022C117.522 13.1097 117.317 12.9522 117.252 12.9522C117.186 12.9522 117.076 12.8734 117.007 12.7771C116.937 12.6808 116.811 12.6021 116.725 12.6021C116.639 12.6021 116.569 12.5627 116.569 12.5146C116.569 12.4664 116.507 12.427 116.43 12.427C116.353 12.427 116.179 12.3089 116.045 12.1645C115.91 12.0201 115.745 11.902 115.679 11.902C115.612 11.902 115.501 11.8232 115.431 11.727C115.362 11.6307 115.236 11.5519 115.15 11.5519C115.065 11.5519 114.994 11.5126 114.994 11.4644C114.994 11.4163 114.916 11.3769 114.819 11.3769C114.723 11.3769 114.644 11.3375 114.644 11.2894C114.644 11.2412 114.574 11.2019 114.488 11.2019C114.402 11.2019 114.276 11.1231 114.206 11.0268C114.137 10.9305 114.011 10.8518 113.925 10.8518C113.839 10.8518 113.769 10.8124 113.769 10.7643C113.769 10.7161 113.699 10.6768 113.614 10.6768C113.528 10.6768 113.401 10.598 113.331 10.5017C113.262 10.4055 113.144 10.3267 113.069 10.3267C112.994 10.3267 112.876 10.2479 112.807 10.1517C112.737 10.0554 112.61 9.97665 112.524 9.97665C112.439 9.97665 112.368 9.9373 112.368 9.88915C112.368 9.841 112.29 9.80165 112.193 9.80165C112.097 9.80165 112.018 9.76225 112.018 9.7141C112.018 9.666 111.949 9.6266 111.863 9.6266C111.778 9.6266 111.651 9.54785 111.581 9.4516C111.512 9.3553 111.385 9.27655 111.299 9.27655C111.213 9.27655 111.144 9.23715 111.144 9.18905C111.144 9.1409 111.065 9.1015 110.969 9.1015C110.872 9.1015 110.794 9.06215 110.794 9.014C110.794 8.96585 110.714 8.9265 110.618 8.9265C110.522 8.9265 110.443 8.8871 110.443 8.83895C110.443 8.79085 110.364 8.75145 110.268 8.75145C110.172 8.75145 110.093 8.7121 110.093 8.66395C110.093 8.6158 110.014 8.57645 109.918 8.57645C109.822 8.57645 109.743 8.53705 109.743 8.4889C109.743 8.4408 109.665 8.4014 109.569 8.4014C109.472 8.4014 109.393 8.362 109.393 8.3139C109.393 8.26575 109.314 8.22635 109.218 8.22635C109.122 8.22635 109.043 8.187 109.043 8.13885C109.043 8.0907 108.964 8.05135 108.868 8.05135C108.772 8.05135 108.693 8.01195 108.693 7.96385C108.693 7.9157 108.614 7.8763 108.518 7.8763C108.422 7.8763 108.343 7.83695 108.343 7.7888C108.343 7.74065 108.265 7.7013 108.168 7.7013C108.072 7.7013 107.993 7.6619 107.993 7.61375C107.993 7.56565 107.914 7.52625 107.818 7.52625C107.722 7.52625 107.643 7.48685 107.643 7.43875C107.643 7.3906 107.564 7.35125 107.468 7.35125C107.372 7.35125 107.293 7.31185 107.293 7.2637C107.293 7.2156 107.214 7.1762 107.118 7.1762C107.021 7.1762 106.943 7.1368 106.943 7.0887C106.943 7.04055 106.864 7.00115 106.768 7.00115C106.671 7.00115 106.593 6.9618 106.593 6.91365C106.593 6.8655 106.514 6.82615 106.418 6.82615C106.322 6.82615 106.243 6.78675 106.243 6.7386C106.243 6.6905 106.124 6.6511 105.98 6.6511C105.836 6.6511 105.717 6.61175 105.717 6.5636C105.717 6.51545 105.639 6.4761 105.542 6.4761C105.446 6.4761 105.367 6.4367 105.367 6.38855C105.367 6.34045 105.289 6.30105 105.192 6.30105C105.096 6.30105 105.017 6.26165 105.017 6.21355C105.017 6.1654 104.939 6.126 104.843 6.126C104.746 6.126 104.668 6.08665 104.668 6.0385C104.668 5.99035 104.55 5.951 104.405 5.951C104.261 5.951 104.143 5.9116 104.143 5.8635C104.143 5.81535 104.064 5.77595 103.968 5.77595C103.871 5.77595 103.792 5.7366 103.792 5.68845C103.792 5.6403 103.713 5.60095 103.617 5.60095C103.521 5.60095 103.442 5.56155 103.442 5.5134C103.442 5.4653 103.324 5.4259 103.18 5.4259C103.036 5.4259 102.917 5.3865 102.917 5.3384C102.917 5.29025 102.839 5.2509 102.742 5.2509C102.646 5.2509 102.567 5.2115 102.567 5.16335C102.567 5.11525 102.449 5.07585 102.304 5.07585C102.16 5.07585 102.042 5.03645 102.042 4.98833C102.042 4.9402 101.963 4.90081 101.867 4.90081C101.77 4.90081 101.692 4.86144 101.692 4.8133C101.692 4.76517 101.574 4.72579 101.43 4.72579C101.285 4.72579 101.167 4.6864 101.167 4.63827C101.167 4.59014 101.049 4.55076 100.905 4.55076C100.76 4.55076 100.642 4.51137 100.642 4.46324C100.642 4.41511 100.523 4.37573 100.379 4.37573C100.235 4.37573 100.117 4.33635 100.117 4.28822C100.117 4.24008 99.9985 4.2007 99.854 4.2007C99.7095 4.2007 99.5915 4.16132 99.5915 4.11319C99.5915 4.06505 99.4735 4.02567 99.329 4.02567C99.1845 4.02567 99.0665 3.98629 99.0665 3.93815C99.0665 3.89002 98.9485 3.85064 98.804 3.85064C98.6595 3.85064 98.5415 3.81126 98.5415 3.76312C98.5415 3.71499 98.4235 3.67561 98.279 3.67561C98.1345 3.67561 98.0165 3.63623 98.0165 3.5881C98.0165 3.53997 97.9375 3.50058 97.8415 3.50058C97.745 3.50058 97.6665 3.4612 97.6665 3.41307C97.6665 3.36494 97.509 3.32556 97.316 3.32556C97.1235 3.32556 96.966 3.28617 96.966 3.23804C96.966 3.1899 96.848 3.15053 96.7035 3.15053C96.559 3.15053 96.441 3.11114 96.441 3.06301C96.441 3.01487 96.2835 2.97549 96.091 2.97549C95.8985 2.97549 95.741 2.93612 95.741 2.88798C95.741 2.83985 95.623 2.80046 95.4785 2.80046C95.334 2.80046 95.216 2.76109 95.216 2.71295C95.216 2.66482 95.0585 2.62544 94.866 2.62544C94.6735 2.62544 94.516 2.58605 94.516 2.53792C94.516 2.48979 94.358 2.45041 94.1655 2.45041C93.973 2.45041 93.8155 2.41103 93.8155 2.3629C93.8155 2.31476 93.6975 2.27538 93.553 2.27538C93.4085 2.27538 93.2905 2.236 93.2905 2.18786C93.2905 2.13973 93.0935 2.10035 92.853 2.10035C92.6125 2.10035 92.4155 2.06097 92.4155 2.01283C92.4155 1.9647 92.258 1.92532 92.0655 1.92532C91.873 1.92532 91.7155 1.88594 91.7155 1.83781C91.7155 1.78968 91.558 1.75029 91.365 1.75029C91.1725 1.75029 91.015 1.71091 91.015 1.66277C91.015 1.61464 90.8575 1.57526 90.665 1.57526C90.4725 1.57526 90.315 1.53588 90.315 1.48775C90.315 1.43909 90.0815 1.40023 89.79 1.40023C89.4985 1.40023 89.265 1.36138 89.265 1.31272C89.265 1.26406 89.0315 1.2252 88.74 1.2252C88.448 1.2252 88.2145 1.18635 88.2145 1.13769C88.2145 1.08903 87.9815 1.05017 87.6895 1.05017C87.398 1.05017 87.1645 1.01132 87.1645 0.96266C87.1645 0.914525 86.9675 0.875145 86.727 0.875145C86.4865 0.875145 86.2895 0.835765 86.2895 0.78763C86.2895 0.73661 85.9975 0.700115 85.5895 0.700115C85.181 0.700115 84.889 0.663625 84.889 0.6126C84.889 0.56158 84.5975 0.52509 84.189 0.52509C83.7805 0.52509 83.489 0.488594 83.489 0.437573C83.489 0.385064 83.139 0.350058 82.614 0.350058C82.0885 0.350058 81.7385 0.315053 81.7385 0.262544C81.7385 0.209073 81.33 0.175029 80.6885 0.175029C80.0465 0.175029 79.6385 0.140986 79.6385 0.0875145C79.6385 0.0393816 79.52 0 79.3755 0C79.2315 0 79.113 0.0393816 79.113 0.0875145C79.113 0.137486 78.8505 0.175029 78.5005 0.175029C78.1505 0.175029 77.888 0.137486 77.888 0.0875145C77.888 0.0309802 76.896 0 75.0875 0C73.279 0 72.287 0.0309802 72.287 0.0875145C72.287 0.135648 72.09 0.175029 71.8495 0.175029C71.609 0.175029 71.412 0.135648 71.412 0.0875145C71.412 0.0375438 71.1495 0 70.7995 0C70.449 0 70.1865 0.0375438 70.1865 0.0875145ZM55.2435 20.2593C55.169 20.344 55.134 20.7197 55.134 21.4413C55.134 22.4478 55.124 22.5096 54.9195 22.7139L54.7045 22.9288H49.1434C45.4943 22.9288 43.5822 22.8987 43.5822 22.8413C43.5822 22.7932 43.5035 22.7538 43.4072 22.7538C43.271 22.7538 43.2322 22.6954 43.2322 22.4913C43.2322 22.3469 43.1928 22.2287 43.1447 22.2287C43.0965 22.2287 43.0572 22.1275 43.0572 22.0037C43.0572 21.5958 42.891 21.5286 41.882 21.5286C41.3235 21.5286 40.9569 21.5632 40.9569 21.6161C40.9569 21.6705 40.4609 21.7036 39.6441 21.7036C38.8274 21.7036 38.3314 21.7367 38.3314 21.7912C38.3314 21.8459 37.8063 21.8787 36.9311 21.8787C36.056 21.8787 35.5309 21.9114 35.5309 21.9661C35.5309 22.0206 35.035 22.0537 34.2182 22.0537C33.4014 22.0537 32.9055 22.0867 32.9055 22.1412C32.9055 22.1893 32.7086 22.2287 32.4679 22.2287C32.2272 22.2287 32.0304 22.1893 32.0304 22.1412C32.0304 22.093 31.8728 22.0537 31.6803 22.0537C31.4878 22.0537 31.3302 22.093 31.3302 22.1412C31.3302 22.1959 30.8052 22.2287 29.93 22.2287C29.0549 22.2287 28.5297 22.2615 28.5297 22.3162C28.5297 22.3711 27.9755 22.4038 27.042 22.4038C26.1085 22.4038 25.5542 22.4364 25.5542 22.4913C25.5542 22.5461 25.0001 22.5787 24.0665 22.5787C23.133 22.5787 22.5787 22.6114 22.5787 22.6663C22.5787 22.7171 22.2935 22.7538 21.898 22.7538C21.3176 22.7538 21.1986 22.7796 21.091 22.9288C21.0216 23.0251 20.9132 23.1038 20.85 23.1038C20.7126 23.1038 20.1284 23.6707 20.1284 23.8041C20.1284 23.8555 19.7346 24.2886 19.2532 24.7667C18.7719 25.2447 18.3781 25.6789 18.3781 25.7319C18.3781 25.7848 18.1811 26.0199 17.9405 26.2544C17.6998 26.4888 17.5029 26.7257 17.5029 26.7806C17.5029 26.8357 17.3454 27.032 17.1528 27.217C16.9603 27.402 16.8028 27.5984 16.8028 27.6535C16.8028 27.7085 16.6059 27.9453 16.3653 28.1797C16.1246 28.4142 15.9276 28.6517 15.9276 28.7077C15.9276 28.7637 15.8095 28.92 15.6651 29.0548C15.5207 29.1897 15.4025 29.3473 15.4025 29.4049C15.4025 29.4626 15.2844 29.6201 15.14 29.755C14.9956 29.8898 14.8775 30.0473 14.8775 30.105C14.8775 30.1627 14.7594 30.3202 14.615 30.4551C14.4706 30.59 14.3524 30.7474 14.3524 30.8051C14.3524 30.8628 14.2343 31.0204 14.0899 31.1552C13.9455 31.29 13.8273 31.4548 13.8273 31.521C13.8273 31.5874 13.7485 31.6984 13.6523 31.7678C13.556 31.8372 13.4773 31.9554 13.4773 32.0304C13.4773 32.1054 13.3985 32.2235 13.3022 32.2929C13.2059 32.3623 13.1272 32.4733 13.1272 32.5396C13.1272 32.6059 13.0091 32.7706 12.8647 32.9055C12.7203 33.0403 12.6021 33.2051 12.6021 33.2713C12.6021 33.3377 12.5233 33.4487 12.427 33.5181C12.3308 33.5875 12.252 33.7143 12.252 33.8C12.252 33.8856 12.2126 33.9557 12.1645 33.9557C12.1164 33.9557 12.077 34.0344 12.077 34.1307C12.077 34.2269 12.0377 34.3057 11.9895 34.3057C11.9414 34.3057 11.902 34.3687 11.902 34.4457C11.902 34.5226 11.7838 34.6959 11.6394 34.8308C11.495 34.9656 11.3769 35.1391 11.3769 35.216C11.3769 35.293 11.3375 35.3559 11.2894 35.3559C11.1594 35.3559 11.1835 35.6125 11.3269 35.7559C11.4053 35.8344 11.6336 35.881 11.9395 35.881C12.2076 35.881 12.427 35.9203 12.427 35.9685C12.427 36.0226 12.8938 36.056 13.6523 36.056C14.4107 36.056 14.8775 36.0894 14.8775 36.1435C14.8775 36.1922 15.1109 36.2311 15.4025 36.2311C15.6942 36.2311 15.9276 36.2699 15.9276 36.3186C15.9276 36.3748 16.8028 36.406 18.3781 36.406C19.9534 36.406 20.8284 36.4373 20.8284 36.4936C20.8284 36.5483 21.3536 36.5811 22.2287 36.5811C23.1039 36.5811 23.629 36.6139 23.629 36.6686C23.629 36.7228 24.0956 36.7562 24.8541 36.7562C25.6126 36.7562 26.0793 36.7895 26.0793 36.8437C26.0793 36.8984 26.6045 36.9311 27.4796 36.9311C28.3548 36.9311 28.8798 36.9639 28.8798 37.0186C28.8798 37.0745 29.6091 37.1062 30.8927 37.1062C32.1762 37.1062 32.9055 37.1378 32.9055 37.1937C32.9055 37.2456 33.2264 37.2812 33.6931 37.2812C34.1598 37.2812 34.4808 37.3169 34.4808 37.3688C34.4808 37.4174 34.7142 37.4563 35.0059 37.4563C35.2975 37.4563 35.5309 37.4174 35.5309 37.3688C35.5309 37.3206 35.7278 37.2812 35.9685 37.2812C36.2091 37.2812 36.406 37.3206 36.406 37.3688C36.406 37.4169 36.603 37.4563 36.8437 37.4563C37.0843 37.4563 37.2812 37.4956 37.2812 37.5437C37.2812 37.5993 37.9498 37.6312 39.1118 37.6312C40.4906 37.6312 40.9548 37.6583 40.9933 37.7407C41.0341 37.8282 41.0546 37.8282 41.0954 37.7407C41.1558 37.6114 41.832 37.5913 41.832 37.7188C41.832 37.8578 42.7883 37.8252 42.9321 37.6813C43.0009 37.6126 43.0572 37.3931 43.0572 37.1937C43.0572 36.8179 43.207 36.5811 43.4448 36.5811C43.5204 36.5811 43.5822 36.5417 43.5822 36.4936C43.5822 36.4361 45.4785 36.406 49.0957 36.406C52.713 36.406 54.609 36.4361 54.609 36.4936C54.609 36.5417 54.671 36.5811 54.7465 36.5811C55.061 36.5811 55.134 36.8024 55.134 37.7564C55.134 38.3148 55.169 38.6814 55.2215 38.6814C55.27 38.6814 55.309 38.7602 55.309 38.8565C55.309 38.9915 55.3675 39.0315 55.5645 39.0315C55.705 39.0315 55.8425 39.0807 55.871 39.1409C55.9115 39.2284 55.932 39.2284 55.973 39.1409C56.0105 39.0605 56.369 39.0315 57.322 39.0315C58.275 39.0315 58.6335 39.0605 58.6715 39.1409C58.712 39.2284 58.7325 39.2284 58.7735 39.1409C58.808 39.067 59.047 39.0315 59.51 39.0315C59.9765 39.0315 60.2095 39.0665 60.24 39.1409C60.2735 39.2235 60.309 39.2182 60.385 39.119C60.461 39.0199 60.497 39.0145 60.53 39.0971C60.5925 39.2505 62.103 39.2505 62.165 39.0971C62.1985 39.0145 62.234 39.0199 62.3105 39.119C62.3865 39.2182 62.422 39.2235 62.4555 39.1409C62.5125 39.001 68.0865 38.9795 68.0865 39.119C68.0865 39.1765 70.0115 39.2066 73.6875 39.2066C77.363 39.2066 79.288 39.1765 79.288 39.119C79.288 39.0643 79.8135 39.0315 80.6885 39.0315C81.5635 39.0315 82.0885 39.0643 82.0885 39.119C82.0885 39.2596 94.6635 39.2378 94.7205 39.0971C94.754 39.0148 94.7885 39.0202 94.859 39.119C94.943 39.2357 94.963 39.2357 95.041 39.119C95.1185 39.0024 95.138 39.0024 95.216 39.119C95.2935 39.2357 95.313 39.2357 95.391 39.119C95.4685 39.0024 95.488 39.0024 95.566 39.119C95.6435 39.2357 95.663 39.2357 95.741 39.119C95.819 39.0024 95.838 39.0024 95.916 39.119C95.994 39.2357 96.013 39.2357 96.091 39.119C96.169 39.0024 96.188 39.0024 96.266 39.119C96.344 39.2357 96.3635 39.2357 96.441 39.119C96.519 39.0024 96.5385 39.0024 96.616 39.119C96.694 39.2357 96.7135 39.2357 96.791 39.119C96.869 39.0024 96.889 39.0024 96.973 39.119C97.0435 39.2178 97.078 39.2232 97.1115 39.1409C97.164 39.0113 97.491 38.9924 97.491 39.119C97.491 39.2574 100.791 39.2358 100.847 39.0971C100.88 39.0148 100.915 39.0202 100.985 39.119C101.069 39.2357 101.089 39.2357 101.167 39.119C101.245 39.0024 101.264 39.0024 101.342 39.119C101.42 39.2357 101.439 39.2357 101.517 39.119C101.595 39.0024 101.614 39.0024 101.692 39.119C101.769 39.2357 101.789 39.2357 101.867 39.119C101.945 39.0024 101.964 39.0024 102.042 39.119C102.12 39.2357 102.139 39.2357 102.217 39.119C102.295 39.0024 102.314 39.0024 102.392 39.119C102.47 39.2357 102.49 39.2357 102.573 39.119C102.644 39.0202 102.679 39.0148 102.712 39.0971C102.768 39.2357 105.892 39.2572 105.892 39.119C105.892 39.0643 106.417 39.0315 107.293 39.0315C108.168 39.0315 108.693 39.0643 108.693 39.119C108.693 39.1754 109.627 39.2066 111.319 39.2066C113.011 39.2066 113.944 39.1754 113.944 39.119C113.944 39.0709 114.023 39.0315 114.119 39.0315C114.215 39.0315 114.294 39.0709 114.294 39.119C114.294 39.1769 117.999 39.2066 125.233 39.2066C132.468 39.2066 136.173 39.1769 136.173 39.119C136.173 39.0709 136.252 39.0315 136.348 39.0315C136.444 39.0315 136.523 39.0709 136.523 39.119C136.523 39.2507 137.549 39.2298 137.603 39.0971C137.636 39.0148 137.67 39.0202 137.741 39.119C137.825 39.2357 137.846 39.2357 137.929 39.119C138 39.0202 138.035 39.0148 138.068 39.0971C138.122 39.2298 139.148 39.2507 139.148 39.119C139.148 38.9917 139.65 39.0115 139.703 39.1409C139.736 39.2235 139.772 39.2182 139.848 39.119C139.924 39.0199 139.96 39.0145 139.993 39.0971C140.018 39.1572 140.096 39.2066 140.168 39.2066C140.546 39.2066 140.701 38.4799 140.373 38.2438C140.277 38.1743 140.198 38.0173 140.198 37.8938C140.198 37.7704 140.12 37.6133 140.023 37.5437C139.927 37.4743 139.848 37.3562 139.848 37.2812C139.848 37.2062 139.77 37.088 139.674 37.0186C139.577 36.9492 139.498 36.8225 139.498 36.7368C139.498 36.6512 139.459 36.5811 139.41 36.5811C139.362 36.5811 139.323 36.5023 139.323 36.406C139.323 36.3098 139.284 36.2311 139.235 36.2311C139.187 36.2311 139.148 36.1609 139.148 36.0753C139.148 35.9896 139.069 35.8628 138.973 35.7934C138.877 35.724 138.798 35.6059 138.798 35.5309C138.798 35.4559 138.719 35.3378 138.623 35.2684C138.527 35.199 138.448 35.0722 138.448 34.9865C138.448 34.9009 138.409 34.8308 138.361 34.8308C138.313 34.8308 138.273 34.7607 138.273 34.6751C138.273 34.5894 138.195 34.4627 138.098 34.3933C138.002 34.3239 137.923 34.2057 137.923 34.1307C137.923 34.0557 137.844 33.9376 137.748 33.8682C137.652 33.7988 137.573 33.6806 137.573 33.6056C137.573 33.5306 137.494 33.4125 137.398 33.3431C137.302 33.2737 137.223 33.1555 137.223 33.0805C137.223 33.0055 137.144 32.8874 137.048 32.818C136.951 32.7486 136.873 32.6304 136.873 32.5554C136.873 32.4804 136.794 32.3623 136.698 32.2929C136.601 32.2235 136.523 32.1133 136.523 32.0479C136.523 31.9825 136.365 31.7778 136.173 31.5928C135.98 31.4078 135.822 31.1943 135.822 31.1182C135.822 31.0423 135.783 30.9802 135.735 30.9802C135.687 30.9802 135.647 30.91 135.647 30.8245C135.647 30.7388 135.569 30.612 135.472 30.5426C135.376 30.4732 135.297 30.363 135.297 30.2976C135.297 30.2322 135.14 30.0275 134.948 29.8425C134.755 29.6575 134.598 29.4606 134.598 29.4049C134.598 29.3493 134.44 29.1523 134.248 28.9673C134.055 28.7823 133.897 28.5846 133.897 28.528C133.897 28.4713 133.779 28.3146 133.635 28.1797C133.49 28.0449 133.372 27.8886 133.372 27.8326C133.372 27.7766 133.176 27.539 132.935 27.3045C132.694 27.0701 132.497 26.8345 132.497 26.781C132.497 26.7273 132.221 26.4116 131.884 26.0793C131.547 25.747 131.272 25.4331 131.272 25.3815C131.272 25.33 130.642 24.6594 129.872 23.8915C129.102 23.1235 128.471 22.4536 128.471 22.4027C128.471 22.2818 127.892 21.7036 127.771 21.7036C127.719 21.7036 127.325 21.3492 126.896 20.916L126.116 20.1284L90.734 20.1317C60.2855 20.1346 55.3375 20.1523 55.2435 20.2593ZM55.6595 42.7947C55.6595 42.8428 55.5975 42.8822 55.522 42.8822C55.2035 42.8822 55.134 43.1012 55.134 44.1074C55.134 45.1135 55.065 45.3326 54.7465 45.3326C54.671 45.3326 54.609 45.372 54.609 45.4201C54.609 45.4775 52.713 45.5076 49.0957 45.5076C45.4785 45.5076 43.5822 45.4775 43.5822 45.4201C43.5822 45.372 43.5035 45.3326 43.4072 45.3326C43.2906 45.3326 43.2322 45.2742 43.2322 45.1576C43.2322 45.0613 43.1928 44.9825 43.1447 44.9825C43.0965 44.9825 43.0572 44.7856 43.0572 44.5449V44.1074H42.4445C42.0945 44.1074 41.832 44.1449 41.832 44.1949C41.832 44.2449 41.5694 44.2824 41.2193 44.2824C40.8693 44.2824 40.6068 44.2449 40.6068 44.1949C40.6068 44.1468 40.4099 44.1074 40.1692 44.1074C39.9286 44.1074 39.7316 44.1468 39.7316 44.1949C39.7316 44.243 39.5347 44.2824 39.294 44.2824C39.0534 44.2824 38.8565 44.3217 38.8565 44.3699C38.8565 44.418 38.7384 44.4574 38.594 44.4574C38.4496 44.4574 38.3314 44.418 38.3314 44.3699C38.3314 44.3212 38.098 44.2824 37.8063 44.2824C37.5146 44.2824 37.2812 44.3212 37.2812 44.3699C37.2812 44.4246 36.7561 44.4574 35.881 44.4574C35.0058 44.4574 34.4808 44.4903 34.4808 44.5449C34.4808 44.6001 33.8973 44.6324 32.9055 44.6324C31.9137 44.6324 31.3302 44.6648 31.3302 44.7199C31.3302 44.7741 30.8635 44.8074 30.105 44.8074C29.3465 44.8074 28.8798 44.8408 28.8798 44.895C28.8798 44.9499 28.3256 44.9825 27.392 44.9825C26.4585 44.9825 25.9043 45.0151 25.9043 45.07C25.9043 45.1244 25.4084 45.1576 24.5916 45.1576C23.7748 45.1576 23.2789 45.1906 23.2789 45.2451C23.2789 45.2998 22.7538 45.3326 21.8787 45.3326C21.0035 45.3326 20.4784 45.3654 20.4784 45.4201C20.4784 45.4748 19.9533 45.5076 19.0782 45.5076C18.203 45.5076 17.6779 45.5404 17.6779 45.5951C17.6779 45.6504 17.0654 45.6826 16.0152 45.6826C14.965 45.6826 14.3524 45.7148 14.3524 45.7701C14.3524 45.826 13.5939 45.8576 12.252 45.8576C10.9102 45.8576 10.1517 45.8892 10.1517 45.9451C10.1517 45.9998 9.6266 46.0326 8.75145 46.0326C7.8763 46.0326 7.35125 46.0655 7.35125 46.1202C7.35125 46.1712 7.05955 46.2077 6.6511 46.2077C6.2427 46.2077 5.951 46.2442 5.951 46.2952C5.951 46.3433 5.87225 46.3828 5.77595 46.3828C5.6593 46.3828 5.60095 46.4411 5.60095 46.5578C5.60095 46.6541 5.56155 46.7328 5.5134 46.7328C5.4653 46.7328 5.4259 46.8116 5.4259 46.9078C5.4259 47.0041 5.3865 47.0828 5.3384 47.0828C5.29025 47.0828 5.2509 47.201 5.2509 47.3454C5.2509 47.4898 5.2115 47.608 5.16335 47.608C5.11525 47.608 5.07585 47.6867 5.07585 47.783C5.07585 47.8793 5.03645 47.958 4.98833 47.958C4.9402 47.958 4.90081 48.0761 4.90081 48.2205C4.90081 48.3649 4.86144 48.4831 4.8133 48.4831C4.76517 48.4831 4.72579 48.6012 4.72579 48.7456C4.72579 48.89 4.6864 49.0082 4.63827 49.0082C4.59014 49.0082 4.55076 49.087 4.55076 49.1832C4.55076 49.2795 4.51137 49.3582 4.46324 49.3582C4.41511 49.3582 4.37573 49.4764 4.37573 49.6208C4.37573 49.7652 4.33635 49.8833 4.28822 49.8833C4.24008 49.8833 4.2007 50.0015 4.2007 50.146C4.2007 50.2905 4.16132 50.4085 4.11319 50.4085C4.06505 50.4085 4.02567 50.487 4.02567 50.5835C4.02567 50.6795 3.98629 50.7585 3.93815 50.7585C3.89002 50.7585 3.85064 50.8765 3.85064 51.021C3.85064 51.1655 3.81126 51.2835 3.76312 51.2835C3.71499 51.2835 3.67561 51.4015 3.67561 51.546C3.67561 51.6905 3.63623 51.8085 3.5881 51.8085C3.53997 51.8085 3.50058 51.966 3.50058 52.1585C3.50058 52.351 3.4612 52.509 3.41307 52.509C3.36494 52.509 3.32556 52.627 3.32556 52.7715C3.32556 52.9155 3.28617 53.034 3.23804 53.034C3.1899 53.034 3.15053 53.152 3.15053 53.2965C3.15053 53.441 3.11114 53.559 3.06301 53.559C3.01487 53.559 2.97549 53.756 2.97549 53.9965C2.97549 54.237 2.93612 54.434 2.88798 54.434C2.83985 54.434 2.80046 54.552 2.80046 54.6965C2.80046 54.841 2.76109 54.959 2.71295 54.959C2.66482 54.959 2.62544 55.0775 2.62544 55.2215C2.62544 55.366 2.58605 55.484 2.53792 55.484C2.48979 55.484 2.45041 55.642 2.45041 55.8345C2.45041 56.027 2.41103 56.1845 2.3629 56.1845C2.31476 56.1845 2.27538 56.3815 2.27538 56.622C2.27538 56.8625 2.236 57.0595 2.18786 57.0595C2.0516 57.0595 2.08337 57.8425 2.22541 57.9845C2.32045 58.08 2.6138 58.1095 3.45062 58.1095C4.1257 58.1095 4.55076 58.1435 4.55076 58.197C4.55076 58.2455 4.70828 58.2845 4.90081 58.2845C5.09335 58.2845 5.2509 58.324 5.2509 58.372C5.2509 58.424 5.5718 58.4595 6.0385 58.4595C6.5052 58.4595 6.82615 58.424 6.82615 58.372C6.82615 58.324 6.9049 58.2845 7.00115 58.2845C7.09745 58.2845 7.1762 58.324 7.1762 58.372C7.1762 58.427 7.73045 58.4595 8.66395 58.4595C9.59745 58.4595 10.1517 58.4925 10.1517 58.5475C10.1517 58.6015 10.6477 58.635 11.4644 58.635C12.2812 58.635 12.7771 58.668 12.7771 58.7225C12.7771 58.777 13.3022 58.81 14.1773 58.81C15.0525 58.81 15.5776 58.8425 15.5776 58.8975C15.5776 58.952 16.1027 58.985 16.9779 58.985C17.853 58.985 18.3781 59.0175 18.3781 59.0725C18.3781 59.127 18.9323 59.16 19.8658 59.16C20.7994 59.16 21.3535 59.1925 21.3535 59.2475C21.3535 59.302 21.8495 59.335 22.6663 59.335C23.483 59.335 23.979 59.368 23.979 59.4225C23.979 59.4735 24.2707 59.51 24.6791 59.51C25.0876 59.51 25.3793 59.4735 25.3793 59.4225C25.3793 59.3745 25.4973 59.335 25.6417 59.335C25.7861 59.335 25.9043 59.3745 25.9043 59.4225C25.9043 59.4705 26.0224 59.51 26.1668 59.51C26.3112 59.51 26.4294 59.5495 26.4294 59.5975C26.4294 59.6535 27.2754 59.685 28.7923 59.685C30.3092 59.685 31.1552 59.7165 31.1552 59.7725C31.1552 59.8275 31.7387 59.86 32.7305 59.86C33.7223 59.86 34.3057 59.8925 34.3057 59.9475C34.3057 60.002 34.8017 60.035 35.6185 60.035C36.4352 60.035 36.9311 60.068 36.9311 60.1225C36.9311 60.177 37.4271 60.21 38.2438 60.21C39.0606 60.21 39.5566 60.243 39.5566 60.2975C39.5566 60.353 40.1567 60.385 41.1819 60.385C42.9433 60.385 43.0572 60.356 43.0572 59.91C43.0572 59.786 43.0965 59.685 43.1447 59.685C43.1928 59.685 43.2322 59.623 43.2322 59.5475C43.2322 59.155 43.1577 59.16 49.0934 59.16H54.7045L54.9195 59.3745C55.119 59.5745 55.134 59.6515 55.134 60.4725C55.134 61.2935 55.1495 61.371 55.349 61.5705L55.564 61.7855H101.957C142.047 61.7855 148.367 61.7685 148.475 61.66C148.622 61.513 148.655 60.21 148.512 60.21C148.464 60.21 148.425 60.013 148.425 59.7725C148.425 59.532 148.386 59.335 148.337 59.335C148.289 59.335 148.25 59.2165 148.25 59.0725C148.25 58.928 148.211 58.81 148.162 58.81C148.114 58.81 148.075 58.5765 148.075 58.2845C148.075 57.993 148.036 57.7595 147.987 57.7595C147.939 57.7595 147.9 57.602 147.9 57.4095C147.9 57.217 147.861 57.0595 147.812 57.0595C147.764 57.0595 147.725 56.902 147.725 56.7095C147.725 56.517 147.685 56.3595 147.637 56.3595C147.589 56.3595 147.549 56.202 147.549 56.0095C147.549 55.817 147.51 55.6595 147.462 55.6595C147.414 55.6595 147.374 55.5015 147.374 55.309C147.374 55.1165 147.335 54.959 147.287 54.959C147.239 54.959 147.199 54.841 147.199 54.6965C147.199 54.552 147.16 54.434 147.112 54.434C147.064 54.434 147.024 54.316 147.024 54.1715C147.024 54.027 146.985 53.909 146.937 53.909C146.889 53.909 146.849 53.7515 146.849 53.559C146.849 53.3665 146.81 53.209 146.762 53.209C146.714 53.209 146.674 53.0515 146.674 52.859C146.674 52.6665 146.635 52.509 146.587 52.509C146.539 52.509 146.5 52.351 146.5 52.1585C146.5 51.966 146.46 51.8085 146.412 51.8085C146.364 51.8085 146.325 51.73 146.325 51.6335C146.325 51.5375 146.285 51.4585 146.237 51.4585C146.189 51.4585 146.15 51.38 146.15 51.2835C146.15 51.1875 146.11 51.1085 146.062 51.1085C146.014 51.1085 145.975 50.951 145.975 50.7585C145.975 50.566 145.935 50.4085 145.887 50.4085C145.839 50.4085 145.8 50.2905 145.8 50.146C145.8 50.0015 145.76 49.8833 145.712 49.8833C145.664 49.8833 145.625 49.7652 145.625 49.6208C145.625 49.4764 145.585 49.3582 145.537 49.3582C145.489 49.3582 145.449 49.2795 145.449 49.1832C145.449 49.087 145.41 49.0082 145.361 49.0082C145.313 49.0082 145.274 48.9294 145.274 48.8332C145.274 48.7369 145.235 48.6581 145.187 48.6581C145.139 48.6581 145.099 48.5399 145.099 48.3955C145.099 48.2511 145.06 48.133 145.012 48.133C144.964 48.133 144.924 48.0149 144.924 47.8705C144.924 47.7261 144.885 47.608 144.837 47.608C144.789 47.608 144.749 47.4898 144.749 47.3454C144.749 47.201 144.71 47.0828 144.662 47.0828C144.614 47.0828 144.574 47.0041 144.574 46.9078C144.574 46.8116 144.535 46.7328 144.487 46.7328C144.439 46.7328 144.399 46.6147 144.399 46.4703C144.399 46.3259 144.36 46.2077 144.312 46.2077C144.264 46.2077 144.224 46.1289 144.224 46.0326C144.224 45.9364 144.184 45.8576 144.136 45.8576C144.088 45.8576 144.049 45.7395 144.049 45.5951C144.049 45.4507 144.009 45.3326 143.961 45.3326C143.913 45.3326 143.874 45.2624 143.874 45.1768C143.874 45.0912 143.795 44.9644 143.699 44.895C143.596 44.8209 143.524 44.6684 143.524 44.5256C143.524 44.3918 143.484 44.2824 143.436 44.2824C143.388 44.2824 143.349 44.1643 143.349 44.0199C143.349 43.8755 143.309 43.7573 143.261 43.7573C143.213 43.7573 143.174 43.6785 143.174 43.5822C143.174 43.486 143.135 43.4072 143.087 43.4072C143.038 43.4072 142.999 43.3453 142.999 43.2697C142.999 43.0929 142.788 42.8822 142.611 42.8822C142.535 42.8822 142.473 42.8428 142.473 42.7947C142.473 42.7365 127.946 42.7071 99.0665 42.7071C70.1865 42.7071 55.6595 42.7365 55.6595 42.7947ZM55.484 65.5485C55.484 65.5965 55.4055 65.636 55.309 65.636C55.1445 65.636 55.134 65.6945 55.134 66.6465C55.134 67.6025 55.1225 67.6685 54.9195 67.8715C54.801 67.9895 54.6435 68.0865 54.5695 68.0865C54.495 68.0865 54.434 68.1255 54.434 68.174C54.434 68.2305 53.2965 68.2615 51.196 68.2615C49.0957 68.2615 47.958 68.2305 47.958 68.174C47.958 68.124 47.6954 68.0865 47.3454 68.0865C46.9953 68.0865 46.7328 68.124 46.7328 68.174C46.7328 68.2265 46.3827 68.2615 45.8576 68.2615C45.3325 68.2615 44.9825 68.2265 44.9825 68.174C44.9825 68.1255 44.7856 68.0865 44.5449 68.0865C44.3043 68.0865 44.1074 68.1255 44.1074 68.174C44.1074 68.222 44.0286 68.2615 43.9323 68.2615C43.836 68.2615 43.7573 68.222 43.7573 68.174C43.7573 68.1255 43.6391 68.0865 43.4947 68.0865C43.2613 68.0865 43.2322 68.057 43.2322 67.824C43.2322 67.6795 43.1928 67.5615 43.1447 67.5615C43.0965 67.5615 43.0572 67.4035 43.0572 67.211C43.0572 66.9195 43.0281 66.861 42.8822 66.861C42.7859 66.861 42.7071 66.822 42.7071 66.7735C42.7071 66.7255 42.5496 66.686 42.357 66.686C42.1645 66.686 42.007 66.7255 42.007 66.7735C42.007 66.828 41.5403 66.861 40.7818 66.861C40.0233 66.861 39.5566 66.8945 39.5566 66.9485C39.5566 67.0035 39.0315 67.036 38.1563 67.036C37.2812 67.036 36.7562 67.069 36.7562 67.1235C36.7562 67.1785 36.2019 67.211 35.2684 67.211C34.3348 67.211 33.7807 67.244 33.7807 67.2985C33.7807 67.3535 33.2264 67.386 32.2929 67.386C31.3594 67.386 30.8051 67.419 30.8051 67.4735C30.8051 67.528 30.3092 67.5615 29.4924 67.5615C28.6756 67.5615 28.1797 67.5945 28.1797 67.649C28.1797 67.7035 27.6546 67.7365 26.7794 67.7365C25.9043 67.7365 25.3793 67.769 25.3793 67.824C25.3793 67.872 25.2217 67.9115 25.0291 67.9115C24.8366 67.9115 24.6791 67.872 24.6791 67.824C24.6791 67.7755 24.5216 67.7365 24.329 67.7365C24.1365 67.7365 23.979 67.7755 23.979 67.824C23.979 67.8785 23.4248 67.9115 22.4913 67.9115C21.5578 67.9115 21.0035 67.944 21.0035 67.999C21.0035 68.0535 20.4784 68.0865 19.6033 68.0865C18.7281 68.0865 18.203 68.119 18.203 68.174C18.203 68.2285 17.6488 68.2615 16.7153 68.2615C15.7818 68.2615 15.2276 68.294 15.2276 68.349C15.2276 68.4035 14.7025 68.4365 13.8273 68.4365C12.9522 68.4365 12.427 68.469 12.427 68.524C12.427 68.5785 11.902 68.6115 11.0268 68.6115C10.1517 68.6115 9.6266 68.6445 9.6266 68.699C9.6266 68.7535 9.13065 68.7865 8.3139 68.7865C7.4971 68.7865 7.00115 68.8195 7.00115 68.874C7.00115 68.9285 6.4761 68.9615 5.60095 68.9615C4.72579 68.9615 4.2007 68.9945 4.2007 69.049C4.2007 69.104 3.64647 69.1365 2.71295 69.1365C1.77944 69.1365 1.2252 69.169 1.2252 69.224C1.2252 69.272 1.0283 69.3115 0.78763 69.3115C0.408431 69.3115 0.350058 69.335 0.350058 69.4865C0.350058 69.583 0.310677 69.6615 0.262544 69.6615C0.207147 69.6615 0.175029 70.3035 0.175029 71.412C0.175029 72.5205 0.142912 73.162 0.0875145 73.162C0.0321179 73.162 0 73.804 0 74.9125C0 76.021 0.0321179 76.663 0.0875145 76.663C0.142912 76.663 0.175029 77.291 0.175029 78.372V80.0815L0.478442 80.385L0.78177 80.6885H1.96619C2.69738 80.6885 3.15053 80.722 3.15053 80.776C3.15053 80.8305 3.64647 80.8635 4.46324 80.8635C5.28 80.8635 5.77595 80.8965 5.77595 80.951C5.77595 81.0055 6.30105 81.0385 7.1762 81.0385C8.05135 81.0385 8.57645 81.0715 8.57645 81.126C8.57645 81.181 9.13065 81.2135 10.0642 81.2135C10.9977 81.2135 11.5519 81.246 11.5519 81.301C11.5519 81.356 12.1061 81.3885 13.0396 81.3885C13.9732 81.3885 14.5274 81.421 14.5274 81.476C14.5274 81.53 14.965 81.5635 15.6651 81.5635C16.3652 81.5635 16.8028 81.5975 16.8028 81.651C16.8028 81.706 17.3863 81.7385 18.3781 81.7385C19.3699 81.7385 19.9533 81.771 19.9533 81.826C19.9533 81.8745 20.1108 81.9135 20.3034 81.9135C20.4959 81.9135 20.6535 81.8745 20.6535 81.826C20.6535 81.778 20.8504 81.7385 21.091 81.7385C21.3317 81.7385 21.5286 81.778 21.5286 81.826C21.5286 81.881 22.0537 81.9135 22.9288 81.9135C23.804 81.9135 24.329 81.9465 24.329 82.001C24.329 82.056 24.8542 82.0885 25.7293 82.0885C26.6045 82.0885 27.1295 82.1215 27.1295 82.176C27.1295 82.2305 27.6254 82.2635 28.4422 82.2635C29.259 82.2635 29.755 82.297 29.755 82.351C29.755 82.4065 30.3675 82.4385 31.4177 82.4385C32.4679 82.4385 33.0805 82.471 33.0805 82.5265C33.0805 82.581 33.6056 82.614 34.4808 82.614C35.3559 82.614 35.881 82.6465 35.881 82.7015C35.881 82.755 36.3185 82.789 37.0186 82.789C37.7188 82.789 38.1563 82.8225 38.1563 82.8765C38.1563 82.931 38.6815 82.964 39.5566 82.964C40.4318 82.964 40.9569 82.9965 40.9569 83.0515C40.9569 83.1035 41.2936 83.139 41.7921 83.139C42.5624 83.139 42.6443 83.122 42.8424 82.924C42.9778 82.7885 43.0572 82.609 43.0572 82.4385C43.0572 82.2685 43.1366 82.089 43.2721 81.9535L43.4868 81.7385H49.0957H54.7045L54.9195 81.9535C55.1215 82.1555 55.134 82.225 55.134 83.139C55.134 84.0525 55.147 84.122 55.349 84.324L55.564 84.539H102.216H148.868L149.171 84.2355C149.444 83.9625 149.475 83.884 149.475 83.448C149.475 83.1815 149.515 82.964 149.563 82.964C149.616 82.964 149.65 82.5555 149.65 81.9135C149.65 81.272 149.684 80.8635 149.738 80.8635C149.792 80.8635 149.825 80.3675 149.825 79.551C149.825 78.734 149.858 78.238 149.913 78.238C149.97 78.238 150 77.013 150 74.7375C150 72.462 149.97 71.237 149.913 71.237C149.859 71.237 149.825 70.77 149.825 70.0115C149.825 69.253 149.792 68.7865 149.738 68.7865C149.686 68.7865 149.65 68.4655 149.65 67.999C149.65 67.532 149.615 67.211 149.563 67.211C149.512 67.211 149.475 66.9325 149.475 66.551C149.475 65.9665 149.45 65.866 149.26 65.676L149.045 65.461H102.264C71.136 65.461 55.484 65.49 55.484 65.5485ZM55.2435 88.1705C55.169 88.2555 55.134 88.631 55.134 89.3525C55.134 90.359 55.124 90.421 54.9195 90.6255L54.7045 90.84H49.0934C43.1577 90.84 43.2322 90.845 43.2322 90.4525C43.2322 90.377 43.1928 90.315 43.1447 90.315C43.0965 90.315 43.0572 90.1745 43.0572 90.0025C43.0572 89.493 42.9378 89.44 41.7944 89.44C41.1777 89.44 40.7818 89.474 40.7818 89.5275C40.7818 89.582 40.2567 89.615 39.3815 89.615C38.5064 89.615 37.9814 89.648 37.9814 89.7025C37.9814 89.7575 37.4271 89.79 36.4936 89.79C35.56 89.79 35.0059 89.8225 35.0059 89.8775C35.0059 89.9335 34.1599 89.965 32.643 89.965C31.1261 89.965 30.28 89.9965 30.28 90.0525C30.28 90.1005 30.1653 90.14 30.0248 90.14C29.8844 90.14 29.7465 90.1895 29.7184 90.2495C29.6777 90.337 29.6572 90.337 29.6164 90.2495C29.5529 90.113 27.8296 90.092 27.8296 90.2275C27.8296 90.282 27.3337 90.315 26.5169 90.315C25.7002 90.315 25.2042 90.348 25.2042 90.4025C25.2042 90.4575 24.6499 90.49 23.7164 90.49C22.7829 90.49 22.2287 90.5225 22.2287 90.5775C22.2287 90.6325 21.7036 90.665 20.8284 90.665C19.9533 90.665 19.4282 90.698 19.4282 90.7525C19.4282 90.8075 18.9032 90.84 18.028 90.84C17.1529 90.84 16.6278 90.873 16.6278 90.9275C16.6278 90.982 16.1318 91.015 15.315 91.015C14.4983 91.015 14.0024 91.048 14.0024 91.1025C14.0024 91.1575 13.4481 91.19 12.5146 91.19C11.581 91.19 11.0268 91.223 11.0268 91.2775C11.0268 91.332 10.5309 91.365 9.7141 91.365C8.89735 91.365 8.4014 91.3985 8.4014 91.4525C8.4014 91.501 8.24385 91.5405 8.05135 91.5405C7.8588 91.5405 7.7013 91.501 7.7013 91.4525C7.7013 91.4045 7.5044 91.365 7.2637 91.365C7.02305 91.365 6.82615 91.4045 6.82615 91.4525C6.82615 91.506 6.44695 91.5405 5.8635 91.5405C5.28 91.5405 4.90081 91.5745 4.90081 91.628C4.90081 91.676 4.78267 91.7155 4.63827 91.7155C4.49387 91.7155 4.37573 91.676 4.37573 91.628C4.37573 91.5795 4.2182 91.5405 4.02567 91.5405C3.83314 91.5405 3.67561 91.5795 3.67561 91.628C3.67561 91.6765 3.44221 91.7155 3.15053 91.7155C2.85884 91.7155 2.62544 91.754 2.62544 91.803C2.62544 91.851 2.5073 91.8905 2.3629 91.8905H2.10035V92.4155C2.10035 92.707 2.1392 92.9405 2.18786 92.9405C2.236 92.9405 2.27538 93.1375 2.27538 93.378C2.27538 93.6185 2.31476 93.8155 2.3629 93.8155C2.41103 93.8155 2.45041 93.934 2.45041 94.078C2.45041 94.2225 2.48979 94.3405 2.53792 94.3405C2.58605 94.3405 2.62544 94.459 2.62544 94.6035C2.62544 94.7475 2.66482 94.866 2.71295 94.866C2.76109 94.866 2.80046 95.0235 2.80046 95.216C2.80046 95.4085 2.83985 95.566 2.88798 95.566C2.93612 95.566 2.97549 95.684 2.97549 95.8285C2.97549 95.973 3.01487 96.091 3.06301 96.091C3.11114 96.091 3.15053 96.209 3.15053 96.3535C3.15053 96.498 3.1899 96.616 3.23804 96.616C3.28617 96.616 3.32556 96.7735 3.32556 96.966C3.32556 97.1585 3.36494 97.316 3.41307 97.316C3.4612 97.316 3.50058 97.4345 3.50058 97.579C3.50058 97.723 3.53997 97.8415 3.5881 97.8415C3.63623 97.8415 3.67561 97.9595 3.67561 98.104C3.67561 98.248 3.71499 98.3665 3.76312 98.3665C3.81126 98.3665 3.85064 98.4845 3.85064 98.629C3.85064 98.7735 3.89002 98.8915 3.93815 98.8915C3.98629 98.8915 4.02567 99.0095 4.02567 99.154C4.02567 99.2985 4.06505 99.4165 4.11319 99.4165C4.16132 99.4165 4.2007 99.5345 4.2007 99.679C4.2007 99.8235 4.24008 99.9415 4.28822 99.9415C4.33635 99.9415 4.37573 100.06 4.37573 100.204C4.37573 100.349 4.41511 100.466 4.46324 100.466C4.51137 100.466 4.55076 100.585 4.55076 100.73C4.55076 100.874 4.59014 100.992 4.63827 100.992C4.6864 100.992 4.72579 101.071 4.72579 101.167C4.72579 101.263 4.76517 101.342 4.8133 101.342C4.86144 101.342 4.90081 101.46 4.90081 101.604C4.90081 101.749 4.9402 101.867 4.98833 101.867C5.03645 101.867 5.07585 101.945 5.07585 102.042C5.07585 102.138 5.11525 102.217 5.16335 102.217C5.2115 102.217 5.2509 102.335 5.2509 102.479C5.2509 102.624 5.29025 102.742 5.3384 102.742C5.3865 102.742 5.4259 102.812 5.4259 102.898C5.4259 102.983 5.50465 103.111 5.60095 103.18C5.6972 103.249 5.77595 103.376 5.77595 103.462C5.77595 103.576 5.8452 103.617 6.0385 103.617C6.1829 103.617 6.30105 103.656 6.30105 103.705C6.30105 103.759 6.82615 103.792 7.7013 103.792C8.57645 103.792 9.1015 103.825 9.1015 103.88C9.1015 103.928 9.21965 103.968 9.36405 103.968C9.50845 103.968 9.6266 103.928 9.6266 103.88C9.6266 103.831 9.86 103.792 10.1517 103.792C10.4434 103.792 10.6768 103.831 10.6768 103.88C10.6768 103.935 11.2894 103.968 12.3396 103.968C13.3898 103.968 14.0024 104 14.0024 104.055C14.0024 104.11 14.4983 104.143 15.315 104.143C16.1318 104.143 16.6278 104.176 16.6278 104.23C16.6278 104.285 17.1237 104.318 17.9405 104.318C18.7572 104.318 19.2532 104.351 19.2532 104.405C19.2532 104.46 19.8366 104.493 20.8284 104.493C21.8202 104.493 22.4038 104.525 22.4038 104.58C22.4038 104.635 22.9288 104.668 23.8039 104.668C24.6791 104.668 25.2042 104.701 25.2042 104.755C25.2042 104.809 25.6709 104.843 26.4294 104.843C27.1879 104.843 27.6546 104.876 27.6546 104.93C27.6546 104.985 28.2089 105.017 29.1424 105.017C30.0759 105.017 30.6301 105.05 30.6301 105.105C30.6301 105.161 31.4178 105.192 32.818 105.192C34.2182 105.192 35.0059 105.224 35.0059 105.28C35.0059 105.331 35.2975 105.367 35.706 105.367C36.1144 105.367 36.406 105.404 36.406 105.455C36.406 105.503 36.5242 105.542 36.6686 105.542C36.813 105.542 36.9311 105.503 36.9311 105.455C36.9311 105.406 37.1646 105.367 37.4563 105.367C37.748 105.367 37.9814 105.406 37.9814 105.455C37.9814 105.503 38.0994 105.542 38.2438 105.542C38.3882 105.542 38.5064 105.582 38.5064 105.63C38.5064 105.686 39.2815 105.717 40.6567 105.717C43.0445 105.717 43.0572 105.715 43.0572 105.155C43.0572 104.983 43.0965 104.843 43.1447 104.843C43.1928 104.843 43.2322 104.764 43.2322 104.668C43.2322 104.551 43.2906 104.493 43.4072 104.493C43.5035 104.493 43.5822 104.453 43.5822 104.405C43.5822 104.348 45.4492 104.318 49.0082 104.318C52.567 104.318 54.434 104.348 54.434 104.405C54.434 104.453 54.5355 104.493 54.659 104.493C55.074 104.493 55.134 104.652 55.134 105.755C55.134 106.372 55.1685 106.768 55.2215 106.768C55.27 106.768 55.309 106.846 55.309 106.943C55.309 107.117 55.3675 107.118 98.939 107.118H142.569L142.784 106.903C142.902 106.785 142.999 106.628 142.999 106.553C142.999 106.479 143.038 106.418 143.087 106.418C143.135 106.418 143.174 106.339 143.174 106.243C143.174 106.147 143.213 106.067 143.261 106.067C143.309 106.067 143.349 105.989 143.349 105.892C143.349 105.796 143.388 105.717 143.436 105.717C143.484 105.717 143.524 105.599 143.524 105.455C143.524 105.31 143.563 105.192 143.611 105.192C143.659 105.192 143.699 105.114 143.699 105.017C143.699 104.921 143.738 104.843 143.786 104.843C143.834 104.843 143.874 104.764 143.874 104.668C143.874 104.571 143.913 104.493 143.961 104.493C144.009 104.493 144.049 104.375 144.049 104.23C144.049 104.086 144.088 103.968 144.136 103.968C144.184 103.968 144.224 103.849 144.224 103.705C144.224 103.56 144.264 103.442 144.312 103.442C144.36 103.442 144.399 103.364 144.399 103.267C144.399 103.171 144.439 103.092 144.487 103.092C144.535 103.092 144.574 102.974 144.574 102.83C144.574 102.685 144.614 102.567 144.662 102.567C144.71 102.567 144.749 102.488 144.749 102.392C144.749 102.296 144.789 102.217 144.837 102.217C144.885 102.217 144.924 102.138 144.924 102.042C144.924 101.945 144.964 101.867 145.012 101.867C145.06 101.867 145.099 101.749 145.099 101.604C145.099 101.46 145.139 101.342 145.187 101.342C145.235 101.342 145.274 101.224 145.274 101.08C145.274 100.935 145.313 100.817 145.361 100.817C145.41 100.817 145.449 100.699 145.449 100.555C145.449 100.41 145.489 100.292 145.537 100.292C145.585 100.292 145.625 100.174 145.625 100.029C145.625 99.885 145.664 99.7665 145.712 99.7665C145.76 99.7665 145.8 99.688 145.8 99.5915C145.8 99.4955 145.839 99.4165 145.887 99.4165C145.935 99.4165 145.975 99.2985 145.975 99.154C145.975 99.0095 146.014 98.8915 146.062 98.8915C146.11 98.8915 146.15 98.7735 146.15 98.629C146.15 98.4845 146.189 98.3665 146.237 98.3665C146.285 98.3665 146.325 98.209 146.325 98.0165C146.325 97.824 146.364 97.6665 146.412 97.6665C146.46 97.6665 146.5 97.548 146.5 97.4035C146.5 97.2595 146.539 97.141 146.587 97.141C146.635 97.141 146.674 97.023 146.674 96.8785C146.674 96.734 146.714 96.616 146.762 96.616C146.81 96.616 146.849 96.498 146.849 96.3535C146.849 96.209 146.889 96.091 146.937 96.091C146.985 96.091 147.024 95.973 147.024 95.8285C147.024 95.684 147.064 95.566 147.112 95.566C147.16 95.566 147.199 95.369 147.199 95.1285C147.199 94.8875 147.239 94.691 147.287 94.691C147.335 94.691 147.374 94.5725 147.374 94.428C147.374 94.284 147.414 94.1655 147.462 94.1655C147.51 94.1655 147.549 94.008 147.549 93.8155C147.549 93.623 147.589 93.4655 147.637 93.4655C147.685 93.4655 147.725 93.308 147.725 93.1155C147.725 92.923 147.764 92.7655 147.812 92.7655C147.861 92.7655 147.9 92.608 147.9 92.4155C147.9 92.223 147.939 92.0655 147.987 92.0655C148.036 92.0655 148.075 91.908 148.075 91.7155C148.075 91.523 148.114 91.365 148.162 91.365C148.211 91.365 148.25 91.1685 148.25 90.9275C148.25 90.687 148.289 90.49 148.337 90.49C148.386 90.49 148.425 90.293 148.425 90.0525C148.425 89.812 148.464 89.615 148.512 89.615C148.56 89.615 148.6 89.4575 148.6 89.265C148.6 89.0725 148.639 88.915 148.687 88.915C148.821 88.915 148.791 88.306 148.65 88.1645C148.462 87.9765 55.409 87.9825 55.2435 88.1705ZM55.6595 110.706C55.6595 110.754 55.5975 110.794 55.522 110.794C55.201 110.794 55.134 111.011 55.134 112.056C55.134 112.673 55.1 113.069 55.0465 113.069C54.9985 113.069 54.959 113.147 54.959 113.244C54.959 113.36 54.901 113.419 54.784 113.419C54.688 113.419 54.609 113.458 54.609 113.506C54.609 113.564 52.726 113.594 49.1355 113.594H43.6618L43.4471 113.379C43.2998 113.232 43.2322 113.067 43.2322 112.854C43.2322 112.684 43.1928 112.544 43.1447 112.544C43.0965 112.544 43.0572 112.465 43.0572 112.368C43.0572 112.232 42.9988 112.193 42.7947 112.193C42.6503 112.193 42.5321 112.154 42.5321 112.106C42.5321 112.055 42.2404 112.018 41.832 112.018C41.4236 112.018 41.1318 112.055 41.1318 112.106C41.1318 112.16 40.6359 112.193 39.8191 112.193C39.0023 112.193 38.5064 112.227 38.5064 112.281C38.5064 112.331 38.2463 112.368 37.9011 112.368C37.5025 112.368 37.2784 112.406 37.2447 112.478C37.2039 112.565 37.1835 112.565 37.1427 112.478C37.0794 112.342 35.5309 112.321 35.5309 112.456C35.5309 112.511 35.0058 112.544 34.1307 112.544C33.2555 112.544 32.7305 112.577 32.7305 112.632C32.7305 112.686 32.2053 112.719 31.3302 112.719C30.4551 112.719 29.93 112.752 29.93 112.807C29.93 112.861 29.4049 112.894 28.5297 112.894C27.6546 112.894 27.1295 112.927 27.1295 112.982C27.1295 113.036 26.6045 113.069 25.7293 113.069C24.8542 113.069 24.329 113.101 24.329 113.156C24.329 113.211 23.804 113.244 22.9288 113.244C22.0537 113.244 21.5286 113.276 21.5286 113.331C21.5286 113.379 21.4498 113.419 21.3535 113.419C21.2573 113.419 21.1786 113.379 21.1786 113.331C21.1786 113.283 21.0604 113.244 20.916 113.244C20.7716 113.244 20.6535 113.283 20.6535 113.331C20.6535 113.384 20.2742 113.419 19.6908 113.419C19.1073 113.419 18.7281 113.453 18.7281 113.506C18.7281 113.636 17.8777 113.615 17.8165 113.484C17.7757 113.397 17.7552 113.397 17.7145 113.484C17.6787 113.561 17.4042 113.594 16.7956 113.594C16.2753 113.594 15.9276 113.629 15.9276 113.681C15.9276 113.729 15.8095 113.769 15.6651 113.769C15.5207 113.769 15.4025 113.729 15.4025 113.681C15.4025 113.555 15.0766 113.573 15.016 113.703C14.9753 113.791 14.9547 113.791 14.9139 113.703C14.8859 113.643 14.7907 113.594 14.7025 113.594C14.6143 113.594 14.519 113.643 14.491 113.703C14.4502 113.791 14.4296 113.791 14.3889 113.703C14.3283 113.573 14.0024 113.555 14.0024 113.681C14.0024 113.735 13.5356 113.769 12.7771 113.769C12.0186 113.769 11.5519 113.802 11.5519 113.856C11.5519 113.904 11.4731 113.944 11.3769 113.944C11.2345 113.944 11.2019 114.003 11.2019 114.257C11.2019 114.508 11.2714 114.637 11.5519 114.907C11.7662 115.113 11.902 115.323 11.902 115.449C11.902 115.563 11.9808 115.713 12.077 115.782C12.1733 115.851 12.252 115.97 12.252 116.045C12.252 116.12 12.3308 116.238 12.427 116.307C12.5233 116.377 12.6021 116.487 12.6021 116.553C12.6021 116.62 12.7203 116.784 12.8647 116.919C13.0091 117.054 13.1272 117.219 13.1272 117.285C13.1272 117.351 13.2059 117.462 13.3022 117.532C13.3985 117.601 13.4773 117.72 13.4773 117.795C13.4773 117.87 13.556 117.988 13.6523 118.057C13.7485 118.127 13.8273 118.238 13.8273 118.304C13.8273 118.37 13.9455 118.535 14.0899 118.67C14.2343 118.804 14.3524 118.978 14.3524 119.055C14.3524 119.132 14.3917 119.195 14.4399 119.195C14.488 119.195 14.5274 119.258 14.5274 119.335C14.5274 119.412 14.6455 119.585 14.7899 119.72C14.9343 119.855 15.0525 120.012 15.0525 120.069C15.0525 120.125 15.21 120.322 15.4025 120.507C15.5951 120.692 15.7527 120.889 15.7527 120.944C15.7527 120.999 15.9495 121.236 16.1902 121.47C16.4308 121.705 16.6278 121.943 16.6278 121.999C16.6278 122.055 16.7459 122.211 16.8903 122.346C17.0347 122.48 17.1528 122.636 17.1528 122.691C17.1528 122.747 17.3891 123.025 17.6779 123.308C17.9667 123.592 18.203 123.866 18.203 123.919C18.203 123.971 18.6756 124.483 19.2532 125.058C19.8308 125.633 20.3034 126.164 20.3034 126.237C20.3034 126.311 20.3653 126.371 20.4409 126.371C20.6178 126.371 20.8284 126.582 20.8284 126.758C20.8284 126.838 20.9027 126.896 21.0035 126.896C21.0997 126.896 21.1786 126.935 21.1786 126.983C21.1786 127.032 21.2573 127.071 21.3535 127.071C21.4498 127.071 21.5286 127.11 21.5286 127.158C21.5286 127.213 22.1096 127.246 23.0966 127.246C24.2689 127.246 24.6757 127.274 24.709 127.355C24.7423 127.438 24.7766 127.432 24.8475 127.333C24.9312 127.217 24.9522 127.217 25.0358 127.333C25.1067 127.432 25.141 127.438 25.1744 127.355C25.2278 127.224 26.0793 127.203 26.0793 127.333C26.0793 127.383 26.3394 127.421 26.6847 127.421C27.0833 127.421 27.3074 127.458 27.3411 127.53C27.3819 127.618 27.4023 127.618 27.4431 127.53C27.506 127.396 28.8798 127.375 28.8798 127.509C28.8798 127.557 29.0767 127.597 29.3174 127.597C29.5581 127.597 29.755 127.636 29.755 127.684C29.755 127.74 30.601 127.772 32.1179 127.772C33.6348 127.772 34.4808 127.803 34.4808 127.859C34.4808 127.914 35.035 127.947 35.9685 127.947C36.902 127.947 37.4563 127.979 37.4563 128.034C37.4563 128.089 37.9522 128.122 38.7689 128.122C39.5857 128.122 40.0817 128.154 40.0817 128.209C40.0817 128.263 40.5942 128.296 41.4443 128.296C42.9499 128.296 43.0572 128.262 43.0572 127.774C43.0572 127.601 43.1358 127.422 43.2721 127.286L43.4868 127.071H49.0957H54.7045L54.9195 127.286C55.1225 127.489 55.134 127.555 55.134 128.511C55.134 129.463 55.1445 129.522 55.309 129.522C55.4055 129.522 55.484 129.561 55.484 129.609C55.484 129.668 67.328 129.697 90.84 129.697C114.352 129.697 126.196 129.668 126.196 129.609C126.196 129.561 126.256 129.522 126.328 129.522C126.475 129.522 130.047 125.988 130.047 125.843C130.047 125.792 130.362 125.439 130.747 125.058C131.132 124.677 131.447 124.323 131.447 124.27C131.447 124.217 131.683 123.941 131.972 123.658C132.261 123.374 132.497 123.099 132.497 123.045C132.497 122.991 132.694 122.755 132.935 122.521C133.176 122.286 133.372 122.049 133.372 121.994C133.372 121.939 133.53 121.743 133.722 121.558C133.915 121.373 134.073 121.175 134.073 121.118C134.073 121.061 134.191 120.905 134.335 120.77C134.48 120.635 134.598 120.477 134.598 120.42C134.598 120.362 134.716 120.205 134.86 120.07C135.005 119.935 135.122 119.778 135.122 119.72C135.122 119.663 135.24 119.505 135.385 119.37C135.529 119.235 135.647 119.071 135.647 119.004C135.647 118.938 135.726 118.826 135.822 118.757C135.919 118.688 135.997 118.57 135.997 118.495C135.997 118.42 136.077 118.302 136.173 118.232C136.269 118.163 136.348 118.052 136.348 117.987C136.348 117.922 136.505 117.717 136.698 117.532C136.89 117.347 137.048 117.142 137.048 117.077C137.048 117.011 137.126 116.901 137.223 116.832C137.319 116.762 137.398 116.636 137.398 116.55C137.398 116.464 137.438 116.395 137.486 116.395C137.534 116.395 137.573 116.316 137.573 116.22C137.573 116.123 137.613 116.045 137.661 116.045C137.709 116.045 137.748 115.982 137.748 115.906C137.748 115.83 137.906 115.616 138.098 115.431C138.291 115.246 138.448 115.033 138.448 114.957C138.448 114.881 138.487 114.819 138.535 114.819C138.583 114.819 138.623 114.741 138.623 114.644C138.623 114.548 138.662 114.469 138.71 114.469C138.759 114.469 138.798 114.391 138.798 114.294C138.798 114.198 138.837 114.119 138.885 114.119C138.934 114.119 138.973 114.056 138.973 113.979C138.973 113.902 139.091 113.729 139.235 113.594C139.38 113.459 139.498 113.285 139.498 113.209C139.498 113.132 139.538 113.069 139.586 113.069C139.634 113.069 139.674 112.99 139.674 112.894C139.674 112.798 139.712 112.719 139.761 112.719C139.809 112.719 139.848 112.648 139.848 112.563C139.848 112.477 139.927 112.35 140.023 112.281C140.119 112.212 140.198 112.093 140.198 112.018C140.198 111.943 140.277 111.826 140.373 111.756C140.469 111.687 140.548 111.56 140.548 111.474C140.548 111.388 140.588 111.319 140.636 111.319C140.684 111.319 140.723 111.218 140.723 111.094C140.723 110.588 141.53 110.618 128.354 110.618C118.74 110.618 116.225 110.641 116.189 110.728C116.156 110.81 116.122 110.805 116.051 110.706C115.967 110.589 115.947 110.589 115.863 110.706C115.792 110.805 115.758 110.81 115.724 110.728C115.694 110.652 115.443 110.618 114.907 110.618C114.374 110.618 114.117 110.652 114.082 110.728C114.041 110.815 114.022 110.815 113.981 110.728C113.945 110.65 113.654 110.618 112.982 110.618C112.305 110.618 112.021 110.65 111.989 110.728C111.956 110.81 111.921 110.805 111.851 110.706C111.767 110.589 111.745 110.589 111.662 110.706C111.591 110.805 111.557 110.81 111.524 110.728C111.467 110.589 107.643 110.567 107.643 110.706C107.643 110.754 107.564 110.794 107.468 110.794C107.372 110.794 107.293 110.754 107.293 110.706C107.293 110.658 107.096 110.618 106.855 110.618C106.614 110.618 106.418 110.658 106.418 110.706C106.418 110.754 106.26 110.794 106.067 110.794C105.875 110.794 105.717 110.754 105.717 110.706C105.717 110.569 103.295 110.59 103.23 110.728C103.19 110.815 103.169 110.815 103.128 110.728C103.088 110.642 101.857 110.618 97.4035 110.618C92.9465 110.618 91.7205 110.642 91.6855 110.728C91.652 110.81 91.618 110.805 91.547 110.706C91.463 110.589 91.443 110.589 91.365 110.706C91.2875 110.822 91.267 110.822 91.1835 110.706C91.1125 110.607 91.0785 110.602 91.045 110.684C91.0205 110.745 90.889 110.794 90.7525 110.794C90.6165 110.794 90.4845 110.745 90.46 110.684C90.427 110.602 90.3925 110.607 90.3215 110.706C90.238 110.822 90.218 110.822 90.14 110.706C90.062 110.589 90.043 110.589 89.965 110.706C89.887 110.822 89.868 110.822 89.79 110.706C89.712 110.589 89.692 110.589 89.6085 110.706C89.5375 110.805 89.503 110.81 89.4695 110.728C89.4125 110.587 55.6595 110.565 55.6595 110.706ZM55.2435 133.503C55.17 133.586 55.134 133.946 55.134 134.598C55.134 135.512 55.1215 135.581 54.9195 135.783L54.7045 135.997H49.0957H43.4868L43.2721 135.783C43.1135 135.625 43.0572 135.473 43.0572 135.208C43.0572 135.009 43.0009 134.791 42.9321 134.722C42.7864 134.576 41.657 134.544 41.657 134.685C41.657 134.74 41.1319 134.773 40.2567 134.773C39.3816 134.773 38.8565 134.806 38.8565 134.86C38.8565 134.915 38.3314 134.948 37.4563 134.948C36.5811 134.948 36.056 134.98 36.056 135.035C36.056 135.089 35.5309 135.122 34.6558 135.122C33.7806 135.122 33.2556 135.155 33.2556 135.21C33.2556 135.263 32.8471 135.297 32.2054 135.297H31.1552V135.519C31.1552 135.765 31.6757 136.348 31.8962 136.348C31.97 136.348 32.0304 136.387 32.0304 136.435C32.0304 136.484 32.0933 136.523 32.1703 136.523C32.2472 136.523 32.4205 136.641 32.5554 136.785C32.6903 136.929 32.8636 137.048 32.9406 137.048C33.0176 137.048 33.0805 137.087 33.0805 137.135C33.0805 137.183 33.1435 137.223 33.2205 137.223C33.2974 137.223 33.4707 137.341 33.6056 137.486C33.7404 137.63 33.9052 137.748 33.9714 137.748C34.0378 137.748 34.1488 137.827 34.2182 137.923C34.2876 138.02 34.4144 138.098 34.5001 138.098C34.5857 138.098 34.6558 138.138 34.6558 138.186C34.6558 138.234 34.7258 138.273 34.8114 138.273C34.8971 138.273 35.024 138.352 35.0934 138.448C35.1628 138.544 35.2809 138.623 35.3559 138.623C35.4309 138.623 35.5491 138.702 35.6185 138.798C35.6879 138.894 35.8146 138.973 35.9003 138.973C35.9859 138.973 36.056 139.012 36.056 139.06C36.056 139.109 36.1348 139.148 36.2311 139.148C36.3273 139.148 36.406 139.187 36.406 139.235C36.406 139.284 36.4761 139.323 36.5617 139.323C36.6474 139.323 36.7743 139.402 36.8437 139.498C36.9131 139.594 37.0398 139.674 37.1255 139.674C37.2111 139.674 37.2812 139.712 37.2812 139.761C37.2812 139.809 37.3513 139.848 37.4369 139.848C37.5226 139.848 37.6494 139.927 37.7188 140.023C37.7882 140.119 37.915 140.198 38.0007 140.198C38.0863 140.198 38.1563 140.237 38.1563 140.286C38.1563 140.334 38.2264 140.373 38.312 140.373C38.3977 140.373 38.5246 140.452 38.594 140.548C38.6634 140.644 38.7901 140.723 38.8758 140.723C38.9614 140.723 39.0315 140.763 39.0315 140.811C39.0315 140.859 39.1496 140.899 39.294 140.899C39.4384 140.899 39.5566 140.938 39.5566 140.986C39.5566 141.034 39.6267 141.074 39.7123 141.074C39.798 141.074 39.9247 141.153 39.9941 141.249C40.0635 141.345 40.1904 141.424 40.2761 141.424C40.3617 141.424 40.4318 141.463 40.4318 141.511C40.4318 141.559 40.5105 141.599 40.6068 141.599C40.7031 141.599 40.7818 141.638 40.7818 141.686C40.7818 141.734 40.8519 141.774 40.9375 141.774C41.0232 141.774 41.1499 141.852 41.2193 141.948C41.2887 142.045 41.4156 142.123 41.5013 142.123C41.5869 142.123 41.657 142.163 41.657 142.211C41.657 142.259 41.8058 142.298 41.9876 142.298C42.218 142.298 42.3567 142.352 42.4445 142.473C42.5139 142.57 42.6408 142.649 42.7264 142.649C42.812 142.649 42.8822 142.688 42.8822 142.737C42.8822 142.785 42.9609 142.824 43.0572 142.824C43.1534 142.824 43.2322 142.863 43.2322 142.912C43.2322 142.96 43.3417 142.999 43.4754 142.999C43.6182 142.999 43.7707 143.071 43.8448 143.174C43.9189 143.276 44.0714 143.349 44.2142 143.349C44.348 143.349 44.4574 143.388 44.4574 143.436C44.4574 143.484 44.5755 143.524 44.7199 143.524C44.8643 143.524 44.9825 143.563 44.9825 143.611C44.9825 143.659 45.0613 143.699 45.1576 143.699C45.2538 143.699 45.3326 143.738 45.3326 143.786C45.3326 143.834 45.4113 143.874 45.5076 143.874C45.6038 143.874 45.6826 143.913 45.6826 143.961C45.6826 144.009 45.7614 144.049 45.8576 144.049C45.9539 144.049 46.0326 144.088 46.0326 144.136C46.0326 144.184 46.1508 144.224 46.2952 144.224C46.4396 144.224 46.5578 144.264 46.5578 144.312C46.5578 144.36 46.6365 144.399 46.7328 144.399C46.829 144.399 46.9078 144.439 46.9078 144.487C46.9078 144.535 46.9866 144.574 47.0828 144.574C47.1791 144.574 47.2579 144.614 47.2579 144.662C47.2579 144.71 47.4154 144.749 47.608 144.749C47.8005 144.749 47.958 144.789 47.958 144.837C47.958 144.885 48.0368 144.924 48.133 144.924C48.2293 144.924 48.308 144.964 48.308 145.012C48.308 145.06 48.4262 145.099 48.5706 145.099C48.715 145.099 48.8332 145.139 48.8332 145.187C48.8332 145.235 48.9119 145.274 49.0082 145.274C49.1045 145.274 49.1832 145.313 49.1832 145.361C49.1832 145.41 49.2619 145.449 49.3582 145.449C49.4545 145.449 49.5332 145.489 49.5332 145.537C49.5332 145.585 49.6514 145.625 49.7958 145.625C49.9402 145.625 50.0585 145.664 50.0585 145.712C50.0585 145.76 50.216 145.8 50.4085 145.8C50.601 145.8 50.7585 145.839 50.7585 145.887C50.7585 145.935 50.8765 145.975 51.021 145.975C51.1655 145.975 51.2835 146.014 51.2835 146.062C51.2835 146.11 51.3625 146.15 51.4585 146.15C51.555 146.15 51.6335 146.189 51.6335 146.237C51.6335 146.285 51.791 146.325 51.9835 146.325C52.176 146.325 52.3335 146.364 52.3335 146.412C52.3335 146.46 52.452 146.5 52.5965 146.5C52.7405 146.5 52.859 146.539 52.859 146.587C52.859 146.635 53.0165 146.674 53.209 146.674C53.4015 146.674 53.559 146.714 53.559 146.762C53.559 146.81 53.677 146.849 53.8215 146.849C53.966 146.849 54.084 146.889 54.084 146.937C54.084 146.985 54.202 147.024 54.3465 147.024C54.491 147.024 54.609 147.064 54.609 147.112C54.609 147.16 54.727 147.199 54.8715 147.199C55.016 147.199 55.134 147.239 55.134 147.287C55.134 147.335 55.331 147.374 55.572 147.374C55.8125 147.374 56.0095 147.414 56.0095 147.462C56.0095 147.51 56.167 147.549 56.3595 147.549C56.552 147.549 56.7095 147.589 56.7095 147.637C56.7095 147.685 56.8275 147.725 56.972 147.725C57.1165 147.725 57.2345 147.764 57.2345 147.812C57.2345 147.861 57.4315 147.9 57.672 147.9C57.913 147.9 58.1095 147.939 58.1095 147.987C58.1095 148.036 58.343 148.075 58.635 148.075C58.9265 148.075 59.16 148.114 59.16 148.162C59.16 148.211 59.2385 148.25 59.335 148.25C59.431 148.25 59.51 148.289 59.51 148.337C59.51 148.386 59.6675 148.425 59.86 148.425C60.0525 148.425 60.21 148.464 60.21 148.512C60.21 148.563 60.5015 148.6 60.91 148.6C61.3185 148.6 61.6105 148.636 61.6105 148.687C61.6105 148.735 61.807 148.775 62.048 148.775C62.2885 148.775 62.4855 148.814 62.4855 148.862C62.4855 148.91 62.6825 148.95 62.923 148.95C63.1635 148.95 63.3605 148.989 63.3605 149.038C63.3605 149.089 63.652 149.125 64.0605 149.125C64.469 149.125 64.761 149.162 64.761 149.213C64.761 149.265 65.0815 149.3 65.5485 149.3C66.015 149.3 66.336 149.336 66.336 149.388C66.336 149.441 66.7155 149.475 67.2985 149.475C67.882 149.475 68.2615 149.51 68.2615 149.563C68.2615 149.611 68.3795 149.65 68.524 149.65C68.6685 149.65 68.7865 149.69 68.7865 149.738C68.7865 149.795 70.3615 149.825 73.337 149.825C76.3125 149.825 77.888 149.855 77.888 149.913C77.888 149.961 77.9665 150 78.063 150C78.1595 150 78.238 149.961 78.238 149.913C78.238 149.858 78.763 149.825 79.6385 149.825C80.5135 149.825 81.0385 149.792 81.0385 149.738C81.0385 149.69 81.196 149.65 81.3885 149.65C81.581 149.65 81.7385 149.611 81.7385 149.563C81.7385 149.511 82.0595 149.475 82.5265 149.475C82.993 149.475 83.314 149.44 83.314 149.388C83.314 149.334 83.7225 149.3 84.364 149.3C85.006 149.3 85.414 149.266 85.414 149.213C85.414 149.162 85.706 149.125 86.1145 149.125C86.523 149.125 86.8145 149.089 86.8145 149.038C86.8145 148.989 86.972 148.95 87.1645 148.95C87.357 148.95 87.5145 148.91 87.5145 148.862C87.5145 148.813 87.748 148.775 88.0395 148.775C88.3315 148.775 88.565 148.736 88.565 148.687C88.565 148.638 88.798 148.6 89.09 148.6C89.3815 148.6 89.615 148.561 89.615 148.512C89.615 148.464 89.7725 148.425 89.965 148.425C90.1575 148.425 90.315 148.386 90.315 148.337C90.315 148.289 90.512 148.25 90.7525 148.25C90.9935 148.25 91.19 148.211 91.19 148.162C91.19 148.114 91.387 148.075 91.628 148.075C91.8685 148.075 92.0655 148.036 92.0655 147.987C92.0655 147.939 92.223 147.9 92.4155 147.9C92.608 147.9 92.7655 147.861 92.7655 147.812C92.7655 147.764 92.8835 147.725 93.028 147.725C93.1725 147.725 93.2905 147.685 93.2905 147.637C93.2905 147.589 93.4875 147.549 93.728 147.549C93.969 147.549 94.1655 147.51 94.1655 147.462C94.1655 147.414 94.284 147.374 94.428 147.374C94.5725 147.374 94.691 147.335 94.691 147.287C94.691 147.239 94.8485 147.199 95.041 147.199C95.2335 147.199 95.391 147.16 95.391 147.112C95.391 147.064 95.5485 147.024 95.741 147.024C95.9335 147.024 96.091 146.985 96.091 146.937C96.091 146.889 96.209 146.849 96.3535 146.849C96.498 146.849 96.616 146.81 96.616 146.762C96.616 146.714 96.7735 146.674 96.966 146.674C97.1585 146.674 97.316 146.635 97.316 146.587C97.316 146.539 97.4345 146.5 97.579 146.5C97.723 146.5 97.8415 146.46 97.8415 146.412C97.8415 146.364 97.92 146.325 98.0165 146.325C98.1125 146.325 98.1915 146.285 98.1915 146.237C98.1915 146.189 98.349 146.15 98.5415 146.15C98.734 146.15 98.8915 146.11 98.8915 146.062C98.8915 146.014 99.0095 145.975 99.154 145.975C99.2985 145.975 99.4165 145.935 99.4165 145.887C99.4165 145.839 99.5345 145.8 99.679 145.8C99.8235 145.8 99.9415 145.76 99.9415 145.712C99.9415 145.664 100.021 145.625 100.117 145.625C100.213 145.625 100.292 145.585 100.292 145.537C100.292 145.489 100.41 145.449 100.555 145.449C100.699 145.449 100.817 145.41 100.817 145.361C100.817 145.313 100.935 145.274 101.08 145.274C101.224 145.274 101.342 145.235 101.342 145.187C101.342 145.139 101.421 145.099 101.517 145.099C101.613 145.099 101.692 145.06 101.692 145.012C101.692 144.964 101.81 144.924 101.954 144.924C102.099 144.924 102.217 144.885 102.217 144.837C102.217 144.789 102.335 144.749 102.479 144.749C102.624 144.749 102.742 144.71 102.742 144.662C102.742 144.614 102.821 144.574 102.917 144.574C103.014 144.574 103.092 144.535 103.092 144.487C103.092 144.439 103.211 144.399 103.355 144.399C103.499 144.399 103.617 144.36 103.617 144.312C103.617 144.264 103.696 144.224 103.792 144.224C103.888 144.224 103.968 144.184 103.968 144.136C103.968 144.088 104.086 144.049 104.23 144.049C104.375 144.049 104.493 144.009 104.493 143.961C104.493 143.913 104.571 143.874 104.668 143.874C104.764 143.874 104.843 143.834 104.843 143.786C104.843 143.738 104.921 143.699 105.017 143.699C105.114 143.699 105.192 143.659 105.192 143.611C105.192 143.563 105.271 143.524 105.367 143.524C105.464 143.524 105.542 143.484 105.542 143.436C105.542 143.388 105.621 143.349 105.717 143.349C105.814 143.349 105.892 143.309 105.892 143.261C105.892 143.213 105.971 143.174 106.067 143.174C106.164 143.174 106.243 143.135 106.243 143.087C106.243 143.038 106.361 142.999 106.505 142.999C106.65 142.999 106.768 142.96 106.768 142.912C106.768 142.863 106.846 142.824 106.943 142.824C107.039 142.824 107.118 142.785 107.118 142.737C107.118 142.688 107.196 142.649 107.293 142.649C107.389 142.649 107.468 142.61 107.468 142.562C107.468 142.513 107.547 142.473 107.643 142.473C107.739 142.473 107.818 142.434 107.818 142.386C107.818 142.338 107.897 142.298 107.993 142.298C108.09 142.298 108.168 142.259 108.168 142.211C108.168 142.163 108.247 142.123 108.343 142.123C108.44 142.123 108.518 142.084 108.518 142.036C108.518 141.988 108.597 141.948 108.693 141.948C108.789 141.948 108.868 141.91 108.868 141.861C108.868 141.813 108.947 141.774 109.043 141.774C109.139 141.774 109.218 141.734 109.218 141.686C109.218 141.638 109.297 141.599 109.393 141.599C109.489 141.599 109.569 141.559 109.569 141.511C109.569 141.463 109.647 141.424 109.743 141.424C109.839 141.424 109.918 141.384 109.918 141.336C109.918 141.288 109.997 141.249 110.093 141.249C110.189 141.249 110.268 141.209 110.268 141.161C110.268 141.113 110.339 141.074 110.424 141.074C110.51 141.074 110.636 140.995 110.706 140.899C110.775 140.802 110.902 140.723 110.988 140.723C111.073 140.723 111.144 140.684 111.144 140.636C111.144 140.588 111.223 140.548 111.319 140.548C111.415 140.548 111.494 140.509 111.494 140.461C111.494 140.413 111.573 140.373 111.669 140.373C111.765 140.373 111.844 140.334 111.844 140.286C111.844 140.237 111.914 140.198 112 140.198C112.085 140.198 112.212 140.119 112.281 140.023C112.355 139.92 112.508 139.848 112.65 139.848C112.784 139.848 112.894 139.809 112.894 139.761C112.894 139.712 112.957 139.674 113.034 139.674C113.111 139.674 113.284 139.555 113.419 139.41C113.554 139.266 113.711 139.148 113.769 139.148C113.826 139.148 113.984 139.03 114.119 138.885C114.27 138.724 114.452 138.623 114.592 138.623C114.717 138.623 114.819 138.583 114.819 138.535C114.819 138.487 114.882 138.448 114.959 138.448C115.036 138.448 115.209 138.33 115.344 138.186C115.479 138.041 115.644 137.923 115.71 137.923C115.777 137.923 115.888 137.844 115.957 137.748C116.026 137.652 116.145 137.573 116.22 137.573C116.295 137.573 116.413 137.494 116.482 137.398C116.552 137.302 116.678 137.223 116.764 137.223C116.85 137.223 116.919 137.183 116.919 137.135C116.919 137.087 116.982 137.048 117.058 137.048C117.134 137.048 117.347 136.89 117.532 136.698C117.717 136.505 117.922 136.348 117.987 136.348C118.052 136.348 118.163 136.269 118.232 136.173C118.302 136.077 118.42 135.997 118.495 135.997C118.57 135.997 118.688 135.919 118.757 135.822C118.826 135.726 118.938 135.647 119.004 135.647C119.071 135.647 119.235 135.529 119.37 135.385C119.505 135.24 119.661 135.122 119.718 135.122C119.775 135.122 119.972 134.965 120.157 134.773C120.342 134.58 120.556 134.423 120.632 134.423C120.708 134.423 120.77 134.383 120.77 134.335C120.77 134.287 120.831 134.248 120.906 134.248C121.118 134.248 121.47 133.84 121.47 133.595V133.372L88.4115 133.376C59.969 133.379 55.3375 133.396 55.2435 133.503Z" fill="white"/>
</svg>
