<svg width="106" height="51" viewBox="0 0 106 51" fill="none" xmlns="http://www.w3.org/2000/svg">
<g opacity="0.3">
<path d="M6.26874 7.76544C6.79751 7.20913 7.48354 6.92598 8.32681 6.91598C9.17009 6.90598 9.86263 7.17279 10.4044 7.7164C10.9461 8.24535 11.2215 8.89846 11.2307 9.67574C11.24 10.453 10.9801 11.1125 10.4511 11.6541C9.91494 12.2032 9.22887 12.4827 8.39293 12.4926C7.55699 12.5025 6.86449 12.2394 6.31543 11.7032C5.77378 11.1742 5.49835 10.5211 5.48914 9.74382C5.47992 8.96654 5.73979 8.30708 6.26874 7.76544ZM10.4168 9.68539C10.4098 9.09877 10.2096 8.60611 9.81623 8.20741C9.42289 7.81605 8.92925 7.62388 8.33529 7.63093C7.74133 7.63797 7.25238 7.84178 6.86843 8.24236C6.48458 8.65027 6.29613 9.14754 6.30308 9.73417C6.30995 10.3135 6.51009 10.8025 6.90352 11.2012C7.29685 11.5925 7.7905 11.7847 8.38445 11.7776C8.97841 11.7706 9.46736 11.5668 9.85131 11.1662C10.2352 10.7583 10.4237 10.2647 10.4168 9.68539Z" fill="#77787B"/>
<path d="M16.5823 12.5561L15.7905 12.5377L15.9139 7.22612L20.6866 7.33692L20.5633 12.6485L19.7715 12.6301L19.8787 8.01135L16.6896 7.93731L16.5823 12.5561Z" fill="#77787B"/>
<path d="M27.4255 13.1113L26.6362 13.046L27.017 8.44173L25.0985 8.2831L25.1556 7.59245L29.7818 7.97499L29.7247 8.66563L27.8063 8.507L27.4255 13.1113Z" fill="#77787B"/>
<path d="M33.721 14.3539L33.0026 14.1895L34.188 9.01043L34.96 9.18714L34.0347 13.2296L38.2733 9.94551L38.9917 10.1099L37.8063 15.289L37.0343 15.1123L37.9571 11.0806L33.721 14.3539Z" fill="#77787B"/>
<path d="M43.1565 16.5636L42.4191 16.342L43.9478 11.2537L44.6852 11.4752L46.0095 14.4459L48.7622 12.7001L49.4996 12.9216L47.971 18.0099L47.2335 17.7884L48.4489 13.743L45.8911 15.3751L45.5961 15.2865L44.3719 12.5182L43.1565 16.5636Z" fill="#77787B"/>
<path d="M54.3382 19.4601C54.6814 19.589 55.0372 19.6324 55.4054 19.5905C55.7736 19.5485 56.099 19.4435 56.3814 19.2753L56.6404 18.5853C56.256 18.0651 55.7789 17.698 55.2091 17.4841C54.7559 17.3141 54.362 17.268 54.0272 17.346C53.6993 17.4266 53.4774 17.6214 53.3614 17.9303C53.2403 18.253 53.2733 18.5513 53.4603 18.8251C53.6473 19.099 53.9399 19.3107 54.3382 19.4601ZM53.8809 20.0522C53.3523 19.8538 52.9567 19.5408 52.6942 19.1133C52.4437 18.6746 52.4138 18.2013 52.6045 17.6932C52.7926 17.192 53.1356 16.8625 53.6334 16.7048C54.1287 16.5538 54.6716 16.5892 55.262 16.8108C55.9074 17.053 56.4442 17.4386 56.8723 17.9674L57.0578 17.4731C57.3696 16.6423 56.9797 16.0221 55.8881 15.6124C55.3045 15.3933 54.699 15.358 54.0715 15.5063L54.3421 14.7854C54.943 14.6662 55.5935 14.7381 56.2938 15.001C56.9735 15.2561 57.4519 15.6197 57.729 16.0919C58.0155 16.5597 58.048 17.0889 57.8264 17.6793L57.0572 19.7287C56.985 19.9209 56.9695 20.0875 57.0107 20.2282C57.0587 20.3716 57.1548 20.4703 57.299 20.5244C57.4088 20.5657 57.5127 20.5811 57.6105 20.5709L57.3941 21.1476C57.2559 21.1819 57.0769 21.1578 56.8572 21.0753C56.6101 20.9826 56.4251 20.8387 56.3025 20.6439C56.1892 20.4447 56.161 20.2069 56.2177 19.9306C55.4975 20.3261 54.7185 20.3666 53.8809 20.0522Z" fill="#77787B"/>
<path d="M60.4397 22.276L60.7701 21.6296C60.7994 21.6528 60.8598 21.6878 60.9512 21.7345C61.3626 21.9448 61.7769 21.8272 62.1941 21.3816C62.5318 21.0271 62.9172 20.4664 63.3504 19.6996L64.1606 18.2112L67.6964 20.0187L65.2781 24.7494L64.5729 24.3889L66.6758 20.2753L64.521 19.1738L64.026 20.0696C63.8327 20.4155 63.6894 20.6635 63.5963 20.8136C63.2104 21.4234 62.8754 21.8452 62.5913 22.0788C62.3135 22.3321 62.0021 22.4982 61.657 22.5772C61.3153 22.6495 60.9764 22.5875 60.6403 22.391C60.5359 22.3376 60.469 22.2993 60.4397 22.276Z" fill="#77787B"/>
<path d="M70.8941 28.0895L68.6049 26.6883L71.3785 22.1568L72.054 22.5702L71.1237 24.0901L72.7093 25.0606C73.2347 25.3822 73.5696 25.7763 73.7139 26.2429C73.862 26.7033 73.7963 27.1618 73.5168 27.6184C73.2374 28.0749 72.8633 28.349 72.3946 28.4404C71.926 28.5319 71.4258 28.4149 70.8941 28.0895ZM70.762 24.6812L69.6422 26.5107L71.134 27.4238C71.4905 27.642 71.8167 27.7342 72.1125 27.7003C72.4122 27.6602 72.6501 27.4963 72.8262 27.2085C73.0061 26.9146 73.0439 26.6281 72.9394 26.3493C72.8388 26.0641 72.6103 25.8125 72.2537 25.5943L70.762 24.6812Z" fill="#77787B"/>
<path d="M75.9918 31.1149L75.3157 30.7025L78.0825 26.1667L78.7586 26.5792L77.5958 28.4855L80.3848 30.1868L81.5477 28.2805L82.2238 28.693L79.457 33.2287L78.7808 32.8162L80.0125 30.7972L77.2234 29.0959L75.9918 31.1149Z" fill="#77787B"/>
<path d="M88.6263 39.9129L88.0238 39.3988L91.4721 35.357L92.0747 35.871L88.6263 39.9129ZM85.8397 37.5354L84.007 35.9719L87.4554 31.93L88.0579 32.444L86.9013 33.7997L88.1063 34.8278C88.5749 35.2276 88.844 35.6692 88.9135 36.1527C88.9878 36.6306 88.8512 37.0731 88.5038 37.4804C88.1563 37.8876 87.744 38.0998 87.2668 38.1168C86.7896 38.1338 86.3139 37.94 85.8397 37.5354ZM86.4515 34.3269L85.0593 35.9587L86.1807 36.9154C86.4987 37.1867 86.8064 37.3288 87.1039 37.3416C87.4062 37.3489 87.6668 37.2242 87.8857 36.9676C88.1094 36.7054 88.1915 36.4284 88.132 36.1366C88.0772 35.8392 87.8908 35.5549 87.5729 35.2836L86.4515 34.3269Z" fill="#77787B"/>
<path d="M91.9427 42.8578L91.4443 42.3149L95.358 38.7217L95.8936 39.3051L92.8388 42.1097L98.1924 41.8089L98.6908 42.3518L94.7771 45.945L94.2415 45.3616L97.2881 42.5644L91.9427 42.8578ZM97.6963 39.9348C97.3342 39.5405 97.1523 39.1201 97.1506 38.6737C97.1544 38.2223 97.3401 37.8228 97.7079 37.4752L98.184 37.9938C97.9571 38.2021 97.8404 38.4436 97.8338 38.7184C97.8273 38.9932 97.9356 39.2522 98.1588 39.4953C98.377 39.733 98.6233 39.8602 98.8977 39.8772C99.172 39.8941 99.4251 39.8011 99.657 39.5982L100.126 40.1086C99.7533 40.4405 99.3422 40.589 98.8921 40.5542C98.442 40.5194 98.0434 40.313 97.6963 39.9348Z" fill="#77787B"/>
</g>
</svg>
