<svg width="15" height="15" viewBox="0 0 15 15" fill="none" xmlns="http://www.w3.org/2000/svg">
<path d="M14.4931 2.95448L9.94813 7.4999L14.4931 12.0451C15.1691 12.7214 15.1691 13.8169 14.4931 14.4932C14.1553 14.831 13.7124 15 13.2698 15C12.8264 15 12.3835 14.8312 12.046 14.4932L7.50007 9.94748L2.95448 14.4932C2.61674 14.8309 2.17385 15 1.73082 15C1.28792 15 0.845327 14.8312 0.507286 14.4932C-0.168751 13.8172 -0.168751 12.7216 0.507286 12.0451L5.0521 7.49985L0.507028 2.95448C-0.169009 2.27845 -0.169009 1.18268 0.507028 0.506641C1.18294 -0.16888 2.27806 -0.16888 2.95422 0.506641L7.50003 5.05206L12.0455 0.506641C12.7218 -0.16888 13.817 -0.16888 14.4928 0.506641C15.1691 1.18268 15.1691 2.27845 14.4931 2.95448Z" fill="#4BAAC5"/>
</svg>
