<svg width="347" height="327" viewBox="0 0 347 327" fill="none" xmlns="http://www.w3.org/2000/svg">
<circle opacity="0.4" cx="183.5" cy="163.5" r="155.5" stroke="#C8CDCE" stroke-width="16" stroke-linejoin="round" stroke-dasharray="1 8"/>
<line x1="183" y1="22" x2="183" y2="-3.57639e-08" stroke="#C8CDCE" stroke-width="2"/>
<line x1="305.521" y1="237.147" x2="323.521" y2="248.147" stroke="#C8CDCE" stroke-width="2"/>
<line x1="34.5719" y1="232.096" x2="53.5719" y2="223.096" stroke="#C8CDCE" stroke-width="2"/>
<circle cx="183" cy="164" r="126" stroke="#DADADA" stroke-width="2"/>
<g opacity="0.3">
<path d="M63.3055 107.246L63.0183 107.997L57.6048 105.926L57.9135 105.119L62.1389 106.735L59.2383 101.656L59.5256 100.905L64.939 102.975L64.6303 103.782L60.4162 102.17L63.3055 107.246Z" fill="#77787B"/>
<path d="M67.1932 99.1167L66.7981 99.8851L61.6437 97.2344L62.0388 96.4661L64.2052 97.5801L65.8351 94.4106L63.6687 93.2966L64.0639 92.5282L69.2182 95.1789L68.8231 95.9473L66.5287 94.7674L64.8988 97.9368L67.1932 99.1167Z" fill="#77787B"/>
<path d="M72.8142 89.5716L72.3684 90.3117L68.0511 87.7112L66.9675 89.5101L66.3199 89.12L68.9328 84.7822L69.5804 85.1723L68.4969 86.9711L72.8142 89.5716Z" fill="#77787B"/>
<path d="M77.5144 83.031C76.9349 83.7248 76.2297 84.1261 75.3989 84.2348C74.5794 84.3425 73.8257 84.1092 73.138 83.5348C72.4749 82.981 72.0935 82.3081 71.994 81.5162C71.8996 80.7182 72.1293 79.9876 72.6832 79.3245C72.9806 78.9683 73.3184 78.7137 73.6965 78.5604C74.0685 78.4021 74.4378 78.3405 74.8045 78.3757C75.1711 78.4109 75.5198 78.4989 75.8505 78.6396C76.1751 78.7751 76.4694 78.9531 76.7334 79.1736L76.9176 79.3275L73.8638 82.984C74.3735 83.3472 74.9163 83.4773 75.492 83.3745C76.0668 83.2604 76.5772 82.9362 77.0234 82.402C77.4541 81.8862 77.7134 81.295 77.8012 80.6283L78.3907 81.1206C78.3705 81.7187 78.0785 82.3555 77.5144 83.031ZM73.3281 82.521L75.8127 79.546C75.4534 79.2773 75.0356 79.1472 74.5593 79.1559C74.0871 79.1472 73.6536 79.3793 73.2588 79.8521C72.8895 80.2942 72.7221 80.7693 72.7563 81.2774C72.8019 81.7844 72.9925 82.199 73.3281 82.521Z" fill="#77787B"/>
<path d="M81.7331 76.7355L84.0502 79.1187L83.4307 79.721L77.7174 73.8446L78.3369 73.2423L78.981 73.9048C78.8747 73.0151 79.1628 72.2384 79.8454 71.5748C80.4591 70.9781 81.1673 70.7024 81.9701 70.7476C82.7728 70.7928 83.4669 71.1166 84.0525 71.7188C84.6436 72.3268 84.9505 73.0327 84.9731 73.8364C84.9958 74.64 84.7002 75.3402 84.0865 75.9369C83.4039 76.6006 82.6194 76.8667 81.7331 76.7355ZM79.692 74.6361L81.022 76.0041C81.4102 76.1623 81.8255 76.1993 82.2679 76.115C82.7048 76.025 83.081 75.8266 83.3965 75.5199C83.8611 75.0682 84.092 74.5424 84.0891 73.9427C84.0808 73.3259 83.8564 72.791 83.4158 72.3379C82.9752 71.8847 82.4496 71.6482 81.8389 71.6283C81.2395 71.6086 80.7075 71.8245 80.2428 72.2763C79.9331 72.5774 79.7299 72.9479 79.6332 73.3878C79.5309 73.822 79.5505 74.2381 79.692 74.6361Z" fill="#77787B"/>
<path d="M91.8101 67.9979L89.4304 70.2143L85.4802 65.9729L87.7106 63.8956C88.1146 63.5194 88.5205 63.3272 88.9283 63.319C89.3365 63.2996 89.6933 63.4538 89.9987 63.7816C90.4239 64.2382 90.5373 64.7121 90.3387 65.2031C91.0245 64.8596 91.6319 64.9717 92.1607 65.5396C92.4933 65.8967 92.6321 66.2922 92.5771 66.7261C92.5166 67.1542 92.2609 67.5781 91.8101 67.9979ZM88.2797 67.7111L89.5474 69.0722L91.1632 67.5674C91.45 67.3002 91.618 67.0345 91.667 66.7702C91.716 66.5059 91.6396 66.2654 91.4379 66.0488C91.2362 65.8322 91.0017 65.739 90.7346 65.7691C90.4621 65.7934 90.1824 65.9391 89.8955 66.2063L88.2797 67.7111ZM86.6277 65.9373L87.789 67.1842L89.2116 65.8593C89.475 65.614 89.6309 65.3704 89.6791 65.1288C89.7218 64.8812 89.6505 64.6579 89.4652 64.4589C89.078 64.0432 88.6064 64.0944 88.0503 64.6124L86.6277 65.9373Z" fill="#77787B"/>
<path d="M96.9402 63.1131C97.2492 62.8591 97.4844 62.5468 97.6457 62.1761C97.8071 61.8054 97.8854 61.4407 97.8807 61.0822L97.3702 60.461C96.6691 60.5402 96.062 60.7905 95.549 61.2121C95.141 61.5473 94.8825 61.8943 94.7735 62.2531C94.6707 62.6068 94.7336 62.9227 94.9621 63.2009C95.2009 63.4914 95.5006 63.623 95.8613 63.5958C96.2221 63.5686 96.5817 63.4077 96.9402 63.1131ZM97.25 63.8681C96.774 64.2592 96.2625 64.4621 95.7154 64.4767C95.1644 64.474 94.7009 64.2439 94.3251 63.7865C93.9543 63.3353 93.8303 62.8315 93.9529 62.2751C94.0806 61.7249 94.4103 61.2314 94.9418 60.7946C95.5228 60.3172 96.1799 60.0205 96.9131 59.9047L96.5474 59.4597C95.9329 58.7118 95.1342 58.7417 94.1515 59.5492C93.6261 59.9809 93.2622 60.5336 93.0599 61.2072L92.5266 60.5582C92.742 59.9257 93.1649 59.3504 93.7953 58.8323C94.4072 58.3295 95.0118 58.076 95.609 58.0719C96.2073 58.0566 96.7249 58.3147 97.1616 58.8463L98.6777 60.6913C98.8199 60.8643 98.9688 60.9698 99.1242 61.0078C99.2858 61.0407 99.4315 61.0038 99.5613 60.8971C99.6602 60.8158 99.7315 60.7262 99.7752 60.6282L100.202 61.1474C100.159 61.2966 100.038 61.4525 99.8406 61.615C99.6181 61.7979 99.3814 61.8941 99.1303 61.9036C98.8804 61.9019 98.6404 61.7988 98.4103 61.5944C98.3908 62.4906 98.004 63.2485 97.25 63.8681Z" fill="#77787B"/>
<path d="M103.244 59.1625L102.804 58.5045C102.841 58.4888 102.907 58.4499 103 58.3876C103.419 58.1071 103.526 57.6498 103.323 57.0157C103.165 56.5057 102.835 55.8407 102.334 55.0208L101.346 53.4586L104.945 51.0482L108.17 55.8642L107.452 56.3449L104.648 52.1571L102.454 53.626L103.045 54.5733C103.272 54.9412 103.433 55.2094 103.526 55.3778C103.903 56.0693 104.127 56.6124 104.198 57.0072C104.292 57.4064 104.286 57.7914 104.178 58.1622C104.065 58.5263 103.826 58.8163 103.46 59.0323C103.354 59.1035 103.282 59.1469 103.244 59.1625Z" fill="#77787B"/>
<path d="M56.7082 220.124L56.3031 219.361L58.4124 218.241L55.0091 216.923L54.4577 215.884L58.2031 217.36L59.3747 212.785L59.9542 213.877L58.9 217.982L61.4226 216.643L61.8277 217.406L56.7082 220.124Z" fill="#77787B"/>
<path d="M57.0228 208.764L60.1117 207.536L60.4309 208.339L52.8146 211.366L52.4954 210.563L53.3541 210.222C52.4915 209.979 51.8844 209.416 51.5327 208.531C51.2165 207.736 51.233 206.976 51.5821 206.252C51.9313 205.527 52.4962 205.01 53.2768 204.7C54.0648 204.387 54.8344 204.373 55.5854 204.66C56.3365 204.947 56.8702 205.488 57.1864 206.284C57.538 207.168 57.4835 207.995 57.0228 208.764ZM54.3019 209.845L56.075 209.14C56.3698 208.842 56.5629 208.473 56.6545 208.032C56.7386 207.594 56.6994 207.17 56.5369 206.761C56.2975 206.159 55.9003 205.745 55.3452 205.518C54.7722 205.289 54.1921 205.292 53.6048 205.525C53.0175 205.759 52.5977 206.154 52.3455 206.71C52.0977 207.256 52.0935 207.83 52.3329 208.433C52.4925 208.834 52.7569 209.164 53.1263 209.421C53.4882 209.682 53.8801 209.823 54.3019 209.845Z" fill="#77787B"/>
<path d="M54.4429 198.449L54.689 199.214L49.1715 200.989L48.9069 200.166L53.2136 198.781L47.7715 196.636L47.5253 195.871L53.0429 194.096L53.3074 194.919L49.0122 196.3L54.4429 198.449Z" fill="#77787B"/>
<path d="M52.1037 187.692L52.2393 188.545L47.2617 189.336L47.5912 191.41L46.8445 191.529L46.0501 186.527L46.7967 186.409L47.1262 188.483L52.1037 187.692Z" fill="#77787B"/>
<path d="M50.7867 180.776L50.83 181.579L45.0424 181.891L44.9959 181.028L49.5133 180.784L44.7962 177.325L44.7529 176.523L50.5404 176.21L50.587 177.073L46.0815 177.316L50.7867 180.776Z" fill="#77787B"/>
<path d="M50.2023 165.79L50.2303 166.654L47.9156 166.729C48.1736 167.281 48.3128 167.873 48.3333 168.504C48.3595 169.312 48.1949 169.914 47.8396 170.309C47.476 170.697 46.8704 170.905 46.0228 170.933L44.5716 170.98L44.5436 170.116L45.9228 170.071C46.5465 170.051 46.9783 169.913 47.2181 169.657C47.4577 169.393 47.5677 168.961 47.5483 168.362C47.5294 167.778 47.3839 167.243 47.112 166.755L44.4374 166.842L44.4094 165.978L50.2023 165.79Z" fill="#77787B"/>
<path d="M50.2992 157.366C50.2724 158.27 49.9661 159.021 49.3801 159.62C48.8023 160.211 48.0657 160.494 47.1701 160.467C46.3064 160.442 45.5908 160.148 45.0232 159.587C44.4557 159.018 44.1848 158.302 44.2104 157.438C44.2241 156.974 44.3323 156.565 44.5349 156.211C44.7294 155.857 44.9817 155.58 45.2917 155.381C45.6018 155.182 45.9302 155.036 46.2772 154.942C46.6161 154.848 46.9575 154.806 47.3013 154.817L47.5412 154.824L47.4002 159.586C48.0254 159.556 48.5325 159.323 48.9216 158.886C49.3029 158.441 49.5039 157.871 49.5245 157.175C49.5444 156.504 49.3828 155.879 49.0398 155.3L49.8075 155.323C50.1613 155.806 50.3252 156.487 50.2992 157.366ZM46.6929 159.553L46.8076 155.678C46.3591 155.689 45.9503 155.845 45.5812 156.146C45.2046 156.431 45.0072 156.882 44.989 157.497C44.9719 158.073 45.1339 158.55 45.4749 158.928C45.824 159.299 46.2301 159.507 46.6929 159.553Z" fill="#77787B"/>
<path d="M51.4812 147.389C51.3684 148.27 50.9892 148.963 50.3437 149.469C49.6902 149.974 48.931 150.171 48.0661 150.061C47.2091 149.951 46.5325 149.566 46.0364 148.905C45.5314 148.252 45.3352 147.485 45.4481 146.604C45.5334 145.937 45.7465 145.376 46.0872 144.919L46.8847 145.022C46.5251 145.5 46.3091 146.021 46.237 146.584C46.1516 147.25 46.2952 147.829 46.6678 148.321C47.0245 148.81 47.5322 149.097 48.1908 149.181C48.8336 149.264 49.3971 149.114 49.8815 148.732C50.359 148.342 50.64 147.817 50.7243 147.159C50.8056 146.524 50.7127 145.927 50.4455 145.369L51.2311 145.469C51.4873 146.051 51.5707 146.69 51.4812 147.389Z" fill="#77787B"/>
<path d="M46.6961 138.687L46.8851 137.844L49.2153 138.366L47.4886 135.15L47.7458 134.003L49.6293 137.561L53.496 134.849L53.2257 136.055L49.7539 138.486L52.5408 139.111L52.3518 139.954L46.6961 138.687Z" fill="#77787B"/>
<path d="M55.1819 129.511L54.9662 130.286L49.3826 128.731L49.6143 127.899L53.9726 129.112L50.6089 124.327L50.8246 123.552L56.4082 125.107L56.1764 125.939L51.8298 124.729L55.1819 129.511Z" fill="#77787B"/>
<path d="M58.6542 120.378L58.3474 121.121L52.99 118.909L53.3197 118.111L57.5014 119.837L54.7346 114.683L55.0414 113.94L60.3988 116.152L60.0691 116.95L55.8985 115.229L58.6542 120.378ZM53.1107 116.038C52.8879 116.578 52.5562 116.952 52.1156 117.159C51.6677 117.364 51.1871 117.364 50.6738 117.161L50.9668 116.451C51.2774 116.58 51.57 116.584 51.8447 116.463C52.1194 116.343 52.3254 116.116 52.4628 115.784C52.5971 115.458 52.6093 115.156 52.4995 114.877C52.3897 114.598 52.181 114.391 51.8735 114.255L52.1619 113.556C52.6617 113.771 52.9982 114.109 53.1714 114.57C53.3446 115.031 53.3244 115.521 53.1107 116.038Z" fill="#77787B"/>
</g>
<g opacity="0.3">
<path d="M297.494 234.975L297.872 234.278L302.541 236.814L302.163 237.51L300.2 236.444L298.642 239.315L300.604 240.381L300.226 241.077L295.557 238.542L295.935 237.846L298.013 238.974L299.572 236.103L297.494 234.975Z" fill="#77787B"/>
<path d="M296.71 244.288C296.853 245.042 296.682 245.764 296.198 246.454C295.714 247.145 295.093 247.552 294.335 247.674C293.59 247.805 292.899 247.648 292.262 247.202C291.626 246.755 291.242 246.159 291.111 245.414C290.978 244.658 291.151 243.938 291.631 243.253C292.111 242.569 292.729 242.16 293.485 242.027C294.231 241.896 294.922 242.054 295.558 242.5C296.195 242.946 296.579 243.542 296.71 244.288ZM292.729 246.535C293.21 246.872 293.727 246.997 294.28 246.91C294.827 246.819 295.272 246.53 295.613 246.044C295.954 245.558 296.073 245.042 295.972 244.496C295.865 243.946 295.571 243.503 295.091 243.166C294.617 242.834 294.103 242.711 293.549 242.798C293.002 242.889 292.558 243.177 292.217 243.664C291.876 244.15 291.756 244.666 291.857 245.212C291.964 245.761 292.255 246.202 292.729 246.535Z" fill="#77787B"/>
<path d="M287.912 249.086L285.632 247.064L286.158 246.472L291.779 251.456L291.254 252.049L290.62 251.487C290.777 252.293 290.567 253.023 289.988 253.676C289.467 254.263 288.838 254.563 288.101 254.576C287.365 254.589 286.708 254.34 286.132 253.829C285.55 253.314 285.222 252.689 285.147 251.956C285.071 251.223 285.294 250.563 285.815 249.976C286.394 249.323 287.093 249.026 287.912 249.086ZM289.92 250.867L288.612 249.706C288.246 249.588 287.864 249.582 287.465 249.689C287.072 249.801 286.741 250.008 286.474 250.31C286.08 250.754 285.904 251.251 285.948 251.799C285.997 252.362 286.238 252.836 286.672 253.22C287.105 253.605 287.602 253.785 288.162 253.762C288.711 253.739 289.183 253.506 289.577 253.061C289.839 252.765 290 252.413 290.059 252.004C290.123 251.6 290.077 251.221 289.92 250.867Z" fill="#77787B"/>
<path d="M281.463 254.954L281.99 254.393L285.863 258.029L285.336 258.591L282.087 258.452L282.423 261.694L281.896 262.256L278.022 258.619L278.549 258.058L281.629 260.949L281.308 257.932L281.519 257.707L284.542 257.845L281.463 254.954Z" fill="#77787B"/>
<path d="M274.336 262.792C274.066 263.04 273.866 263.337 273.737 263.685C273.608 264.032 273.555 264.37 273.577 264.698L274.075 265.241C274.713 265.133 275.256 264.874 275.705 264.462C276.061 264.135 276.281 263.804 276.362 263.47C276.439 263.142 276.365 262.856 276.142 262.612C275.909 262.358 275.628 262.253 275.3 262.296C274.971 262.339 274.65 262.504 274.336 262.792ZM274.015 262.116C274.431 261.734 274.889 261.523 275.389 261.482C275.893 261.457 276.329 261.645 276.696 262.044C277.058 262.439 277.197 262.894 277.112 263.409C277.023 263.919 276.746 264.387 276.281 264.814C275.774 265.28 275.187 265.584 274.522 265.727L274.879 266.116C275.479 266.77 276.208 266.703 277.067 265.914C277.527 265.493 277.832 264.969 277.983 264.342L278.504 264.909C278.339 265.499 277.98 266.047 277.429 266.553C276.894 267.043 276.354 267.306 275.807 267.339C275.26 267.383 274.774 267.173 274.347 266.708L272.867 265.096C272.728 264.944 272.587 264.855 272.443 264.828C272.293 264.806 272.162 264.847 272.048 264.951C271.962 265.031 271.901 265.116 271.866 265.208L271.449 264.754C271.481 264.616 271.584 264.467 271.757 264.308C271.951 264.13 272.163 264.03 272.392 264.009C272.621 263.998 272.846 264.08 273.067 264.255C273.04 263.434 273.356 262.721 274.015 262.116Z" fill="#77787B"/>
<path d="M268.751 267.14L269.208 267.704C269.175 267.721 269.118 267.762 269.039 267.827C268.68 268.118 268.62 268.544 268.859 269.106C269.046 269.558 269.403 270.138 269.929 270.844L270.962 272.187L267.878 274.689L264.531 270.564L265.146 270.065L268.057 273.652L269.936 272.128L269.317 271.312C269.079 270.996 268.91 270.764 268.811 270.618C268.409 270.019 268.159 269.542 268.06 269.187C267.941 268.831 267.915 268.479 267.983 268.131C268.055 267.789 268.249 267.505 268.564 267.277C268.655 267.203 268.717 267.157 268.751 267.14Z" fill="#77787B"/>
<path d="M258.265 274.685L260.471 273.156L263.498 277.522L262.847 277.973L261.832 276.509L260.304 277.568C259.798 277.919 259.302 278.066 258.817 278.01C258.336 277.96 257.943 277.715 257.638 277.275C257.333 276.835 257.233 276.382 257.339 275.916C257.444 275.451 257.753 275.04 258.265 274.685ZM261.437 275.939L260.215 274.177L258.778 275.173C258.434 275.411 258.218 275.673 258.13 275.957C258.045 276.247 258.099 276.531 258.292 276.808C258.488 277.092 258.735 277.242 259.032 277.259C259.334 277.282 259.656 277.174 260 276.936L261.437 275.939Z" fill="#77787B"/>
<path d="M253.046 278.167L253.75 277.802L256.194 282.52L255.491 282.884L254.463 280.901L251.563 282.404L252.59 284.387L251.887 284.751L249.442 280.034L250.146 279.669L251.234 281.769L254.134 280.266L253.046 278.167Z" fill="#77787B"/>
<path d="M239.339 284.902L240.063 284.581L242.216 289.438L241.492 289.759L239.339 284.902ZM242.687 283.417L244.889 282.44L247.043 287.297L246.319 287.618L245.597 285.989L244.149 286.631C243.586 286.881 243.071 286.933 242.605 286.786C242.142 286.647 241.802 286.332 241.585 285.843C241.368 285.354 241.355 284.89 241.546 284.452C241.737 284.015 242.117 283.67 242.687 283.417ZM245.316 285.356L244.446 283.395L243.099 283.992C242.717 284.162 242.455 284.378 242.315 284.641C242.178 284.91 242.178 285.199 242.315 285.507C242.454 285.822 242.669 286.016 242.957 286.089C243.249 286.168 243.586 286.123 243.968 285.953L245.316 285.356Z" fill="#77787B"/>
<path d="M234.347 287.367L235.046 287.135L236.72 292.178L235.968 292.427L234.662 288.491L232.742 293.498L232.043 293.73L230.369 288.687L231.121 288.438L232.423 292.363L234.347 287.367ZM234.655 293.813C235.163 293.645 235.621 293.651 236.029 293.833C236.439 294.021 236.727 294.354 236.894 294.832L236.225 295.054C236.128 294.761 235.956 294.556 235.708 294.437C235.46 294.319 235.179 294.311 234.866 294.415C234.56 294.517 234.343 294.69 234.215 294.933C234.087 295.176 234.068 295.445 234.158 295.74L233.501 295.958C233.351 295.483 233.384 295.047 233.6 294.65C233.816 294.254 234.168 293.975 234.655 293.813Z" fill="#77787B"/>
</g>
<g opacity="0.3">
<path d="M183.269 26.7654C183.798 26.2091 184.484 25.926 185.327 25.916C186.17 25.906 186.863 26.1728 187.404 26.7164C187.946 27.2454 188.222 27.8985 188.231 28.6757C188.24 29.453 187.98 30.1125 187.451 30.6541C186.915 31.2032 186.229 31.4827 185.393 31.4926C184.557 31.5025 183.864 31.2394 183.315 30.7032C182.774 30.1742 182.498 29.5211 182.489 28.7438C182.48 27.9665 182.74 27.3071 183.269 26.7654ZM187.417 28.6854C187.41 28.0988 187.21 27.6061 186.816 27.2074C186.423 26.816 185.929 26.6239 185.335 26.6309C184.741 26.638 184.252 26.8418 183.868 27.2424C183.485 27.6503 183.296 28.1475 183.303 28.7342C183.31 29.3135 183.51 29.8025 183.904 30.2012C184.297 30.5925 184.79 30.7847 185.384 30.7776C185.978 30.7706 186.467 30.5668 186.851 30.1662C187.235 29.7583 187.424 29.2647 187.417 28.6854Z" fill="#77787B"/>
<path d="M193.582 31.5561L192.791 31.5377L192.914 26.2261L197.687 26.3369L197.563 31.6485L196.771 31.6301L196.879 27.0114L193.69 26.9373L193.582 31.5561Z" fill="#77787B"/>
<path d="M204.426 32.1113L203.636 32.046L204.017 27.4417L202.099 27.2831L202.156 26.5925L206.782 26.975L206.725 27.6656L204.806 27.507L204.426 32.1113Z" fill="#77787B"/>
<path d="M210.721 33.3539L210.003 33.1895L211.188 28.0104L211.96 28.1871L211.035 32.2296L215.273 28.9455L215.992 29.1099L214.806 34.289L214.034 34.1123L214.957 30.0806L210.721 33.3539Z" fill="#77787B"/>
<path d="M220.157 35.5636L219.419 35.342L220.948 30.2537L221.685 30.4752L223.009 33.4459L225.762 31.7001L226.5 31.9216L224.971 37.0099L224.234 36.7884L225.449 32.743L222.891 34.3751L222.596 34.2865L221.372 31.5182L220.157 35.5636Z" fill="#77787B"/>
<path d="M231.338 38.4601C231.681 38.589 232.037 38.6324 232.405 38.5905C232.774 38.5485 233.099 38.4435 233.381 38.2753L233.64 37.5853C233.256 37.0651 232.779 36.698 232.209 36.4841C231.756 36.3141 231.362 36.268 231.027 36.346C230.699 36.4266 230.477 36.6214 230.361 36.9303C230.24 37.253 230.273 37.5513 230.46 37.8251C230.647 38.099 230.94 38.3107 231.338 38.4601ZM230.881 39.0522C230.352 38.8538 229.957 38.5408 229.694 38.1133C229.444 37.6746 229.414 37.2013 229.604 36.6932C229.793 36.192 230.136 35.8625 230.633 35.7048C231.129 35.5538 231.672 35.5892 232.262 35.8108C232.907 36.053 233.444 36.4386 233.872 36.9674L234.058 36.4731C234.37 35.6423 233.98 35.0221 232.888 34.6124C232.305 34.3933 231.699 34.358 231.072 34.5063L231.342 33.7854C231.943 33.6662 232.594 33.7381 233.294 34.001C233.974 34.2561 234.452 34.6197 234.729 35.0919C235.016 35.5597 235.048 36.0889 234.826 36.6793L234.057 38.7287C233.985 38.9209 233.97 39.0875 234.011 39.2282C234.059 39.3716 234.155 39.4703 234.299 39.5244C234.409 39.5657 234.513 39.5811 234.611 39.5709L234.394 40.1476C234.256 40.1819 234.077 40.1578 233.857 40.0753C233.61 39.9826 233.425 39.8387 233.302 39.6439C233.189 39.4447 233.161 39.2069 233.218 38.9306C232.497 39.3261 231.719 39.3666 230.881 39.0522Z" fill="#77787B"/>
<path d="M237.44 41.276L237.77 40.6296C237.799 40.6528 237.86 40.6878 237.951 40.7345C238.363 40.9448 238.777 40.8272 239.194 40.3816C239.532 40.0271 239.917 39.4664 240.35 38.6996L241.161 37.2112L244.696 39.0187L242.278 43.7494L241.573 43.3889L243.676 39.2753L241.521 38.1738L241.026 39.0696C240.833 39.4155 240.689 39.6635 240.596 39.8136C240.21 40.4234 239.875 40.8452 239.591 41.0788C239.314 41.3321 239.002 41.4982 238.657 41.5772C238.315 41.6495 237.976 41.5875 237.64 41.391C237.536 41.3376 237.469 41.2993 237.44 41.276Z" fill="#77787B"/>
<path d="M247.894 47.0895L245.605 45.6883L248.379 41.1568L249.054 41.5702L248.124 43.0901L249.709 44.0606C250.235 44.3822 250.57 44.7763 250.714 45.2429C250.862 45.7033 250.796 46.1618 250.517 46.6184C250.237 47.0749 249.863 47.349 249.395 47.4404C248.926 47.5319 248.426 47.4149 247.894 47.0895ZM247.762 43.6812L246.642 45.5107L248.134 46.4238C248.49 46.642 248.817 46.7342 249.113 46.7003C249.412 46.6602 249.65 46.4963 249.826 46.2085C250.006 45.9146 250.044 45.6281 249.939 45.3493C249.839 45.0641 249.61 44.8125 249.254 44.5943L247.762 43.6812Z" fill="#77787B"/>
<path d="M252.992 50.1149L252.316 49.7025L255.082 45.1667L255.759 45.5792L254.596 47.4855L257.385 49.1868L258.548 47.2805L259.224 47.693L256.457 52.2287L255.781 51.8162L257.012 49.7972L254.223 48.0959L252.992 50.1149Z" fill="#77787B"/>
<path d="M265.626 58.9129L265.024 58.3988L268.472 54.357L269.075 54.871L265.626 58.9129ZM262.84 56.5354L261.007 54.9719L264.455 50.93L265.058 51.444L263.901 52.7997L265.106 53.8278C265.575 54.2276 265.844 54.6692 265.914 55.1527C265.988 55.6306 265.851 56.0731 265.504 56.4804C265.156 56.8876 264.744 57.0998 264.267 57.1168C263.79 57.1338 263.314 56.94 262.84 56.5354ZM263.452 53.3269L262.059 54.9587L263.181 55.9154C263.499 56.1867 263.806 56.3288 264.104 56.3416C264.406 56.3489 264.667 56.2242 264.886 55.9676C265.109 55.7054 265.192 55.4284 265.132 55.1366C265.077 54.8392 264.891 54.5549 264.573 54.2836L263.452 53.3269Z" fill="#77787B"/>
<path d="M268.943 61.8578L268.444 61.3149L272.358 57.7217L272.894 58.3051L269.839 61.1097L275.192 60.8089L275.691 61.3518L271.777 64.945L271.241 64.3616L274.288 61.5644L268.943 61.8578ZM274.696 58.9348C274.334 58.5405 274.152 58.1201 274.151 57.6737C274.154 57.2223 274.34 56.8228 274.708 56.4752L275.184 56.9938C274.957 57.2021 274.84 57.4436 274.834 57.7184C274.827 57.9932 274.936 58.2522 275.159 58.4953C275.377 58.733 275.623 58.8602 275.898 58.8772C276.172 58.8941 276.425 58.8011 276.657 58.5982L277.126 59.1086C276.753 59.4405 276.342 59.589 275.892 59.5542C275.442 59.5194 275.043 59.313 274.696 58.9348Z" fill="#77787B"/>
</g>
<g filter="url(#filter0_d_245_2893)">
<rect x="112" y="197" width="141" height="44" rx="22" fill="url(#paint0_linear_245_2893)"/>
</g>
<path d="M142.864 224H137.232V212.8H142.496C143.531 212.8 144.352 213.045 144.96 213.536C145.579 214.027 145.888 214.715 145.888 215.6C145.888 216.144 145.755 216.608 145.488 216.992C145.221 217.376 144.885 217.653 144.48 217.824C145.088 217.952 145.621 218.283 146.08 218.816C146.528 219.339 146.752 220.005 146.752 220.816C146.752 221.765 146.4 222.533 145.696 223.12C145.003 223.707 144.059 224 142.864 224ZM139.536 219.088V222.016H142.432C143.008 222.016 143.456 221.893 143.776 221.648C144.096 221.392 144.256 221.029 144.256 220.56C144.256 220.091 144.096 219.728 143.776 219.472C143.456 219.216 143.008 219.088 142.432 219.088H139.536ZM139.536 214.72V217.184H142.128C142.608 217.184 142.981 217.077 143.248 216.864C143.525 216.651 143.664 216.352 143.664 215.968C143.664 215.573 143.525 215.269 143.248 215.056C142.981 214.832 142.608 214.72 142.128 214.72H139.536ZM158.925 224H156.701V216.016H158.925V224ZM152.557 224H148.557V216.016H150.813V218.352H152.445C153.448 218.352 154.248 218.608 154.845 219.12C155.442 219.632 155.741 220.315 155.741 221.168C155.741 221.979 155.464 222.656 154.909 223.2C154.344 223.733 153.56 224 152.557 224ZM150.813 220.032V222.256H152.093C152.53 222.256 152.872 222.16 153.117 221.968C153.362 221.776 153.485 221.504 153.485 221.152C153.485 220.8 153.362 220.528 153.117 220.336C152.872 220.133 152.53 220.032 152.093 220.032H150.813ZM163.391 224H161.135V216.016H168.831V224H166.575V217.904H163.391V224ZM172.738 220C172.738 220.64 172.946 221.173 173.362 221.6C173.778 222.027 174.306 222.24 174.946 222.24C175.586 222.24 176.114 222.027 176.53 221.6C176.946 221.163 177.154 220.629 177.154 220C177.154 219.36 176.946 218.832 176.53 218.416C176.114 217.989 175.586 217.776 174.946 217.776C174.306 217.776 173.778 217.989 173.362 218.416C172.946 218.832 172.738 219.36 172.738 220ZM170.514 220C170.514 218.816 170.93 217.824 171.762 217.024C172.583 216.213 173.644 215.808 174.946 215.808C176.247 215.808 177.308 216.213 178.13 217.024C178.962 217.835 179.378 218.827 179.378 220C179.378 221.195 178.962 222.197 178.13 223.008C177.298 223.808 176.236 224.208 174.946 224.208C173.655 224.208 172.594 223.808 171.762 223.008C170.93 222.197 170.514 221.195 170.514 220ZM186.471 217.904H184.007L183.975 219.024C183.922 220.208 183.799 221.141 183.607 221.824C183.404 222.539 183.084 223.088 182.647 223.472C182.22 223.845 181.628 224.043 180.871 224.064C180.476 224.064 180.194 224.016 180.023 223.92V222.08C180.14 222.123 180.295 222.144 180.487 222.144C181.01 222.144 181.356 221.803 181.527 221.12C181.687 220.512 181.772 219.595 181.783 218.368L181.831 216.016H188.727V224H186.471V217.904ZM193.188 224H190.932V216.016H193.188V218.976H196.468V216.016H198.724V224H196.468V220.864H193.188V224ZM204.836 224.208C203.588 224.208 202.537 223.824 201.684 223.056C200.831 222.288 200.404 221.269 200.404 220C200.404 218.816 200.788 217.824 201.556 217.024C202.324 216.213 203.327 215.808 204.564 215.808C205.716 215.808 206.639 216.219 207.332 217.04C208.025 217.861 208.372 218.859 208.372 220.032V220.624H202.644C202.761 221.157 203.055 221.568 203.524 221.856C204.004 222.144 204.601 222.288 205.316 222.288C206.201 222.288 207.055 222.053 207.876 221.584V223.392C207.161 223.936 206.148 224.208 204.836 224.208ZM202.644 219.184H206.148C206.127 218.725 205.961 218.347 205.652 218.048C205.353 217.739 204.959 217.584 204.468 217.584C203.967 217.584 203.551 217.733 203.22 218.032C202.889 218.32 202.697 218.704 202.644 219.184ZM212.36 224H210.104V216.016H212.36V218.976H215.64V216.016H217.896V224H215.64V220.864H212.36V224ZM221.8 220C221.8 220.64 222.008 221.173 222.424 221.6C222.84 222.027 223.368 222.24 224.008 222.24C224.648 222.24 225.176 222.027 225.592 221.6C226.008 221.163 226.216 220.629 226.216 220C226.216 219.36 226.008 218.832 225.592 218.416C225.176 217.989 224.648 217.776 224.008 217.776C223.368 217.776 222.84 217.989 222.424 218.416C222.008 218.832 221.8 219.36 221.8 220ZM219.576 220C219.576 218.816 219.992 217.824 220.824 217.024C221.645 216.213 222.707 215.808 224.008 215.808C225.309 215.808 226.371 216.213 227.192 217.024C228.024 217.835 228.44 218.827 228.44 220C228.44 221.195 228.024 222.197 227.192 223.008C226.36 223.808 225.299 224.208 224.008 224.208C222.717 224.208 221.656 223.808 220.824 223.008C219.992 222.197 219.576 221.195 219.576 220Z" fill="white"/>
<path d="M123.833 168H118.233V161H104.193V156.84L118.153 140H123.833V156.36H127.953V161H123.833V168ZM118.233 147.24L110.553 156.36H118.233V147.24ZM134.178 155.24C133.192 155.24 132.365 154.907 131.698 154.24C131.032 153.547 130.698 152.707 130.698 151.72C130.698 150.76 131.032 149.947 131.698 149.28C132.365 148.613 133.192 148.28 134.178 148.28C135.138 148.28 135.952 148.613 136.618 149.28C137.312 149.947 137.658 150.76 137.658 151.72C137.658 152.707 137.312 153.547 136.618 154.24C135.952 154.907 135.138 155.24 134.178 155.24ZM134.178 168.44C133.192 168.44 132.365 168.107 131.698 167.44C131.032 166.747 130.698 165.907 130.698 164.92C130.698 163.96 131.032 163.147 131.698 162.48C132.365 161.813 133.192 161.48 134.178 161.48C135.138 161.48 135.952 161.813 136.618 162.48C137.312 163.147 137.658 163.96 137.658 164.92C137.658 165.907 137.312 166.747 136.618 167.44C135.952 168.107 135.138 168.44 134.178 168.44ZM153.526 168.56C151.046 168.56 148.873 167.867 147.006 166.48C145.193 165.12 143.806 163.36 142.846 161.2C141.913 159.04 141.446 156.64 141.446 154C141.446 151.387 141.9 149.013 142.806 146.88C143.766 144.64 145.18 142.84 147.046 141.48C148.94 140.12 151.1 139.44 153.526 139.44C157.206 139.44 160.126 140.867 162.286 143.72C164.473 146.547 165.566 149.973 165.566 154C165.566 158.027 164.473 161.453 162.286 164.28C160.126 167.133 157.206 168.56 153.526 168.56ZM148.926 160.52C150.1 162.28 151.633 163.16 153.526 163.16C155.446 163.16 156.966 162.28 158.086 160.52C159.233 158.733 159.806 156.56 159.806 154C159.806 151.413 159.233 149.253 158.086 147.52C156.966 145.733 155.446 144.84 153.526 144.84C151.606 144.84 150.073 145.733 148.926 147.52C147.78 149.253 147.206 151.413 147.206 154C147.206 156.56 147.78 158.733 148.926 160.52ZM181.729 168.56C179.249 168.56 177.076 167.867 175.209 166.48C173.396 165.12 172.009 163.36 171.049 161.2C170.116 159.04 169.649 156.64 169.649 154C169.649 151.387 170.103 149.013 171.009 146.88C171.969 144.64 173.383 142.84 175.249 141.48C177.143 140.12 179.303 139.44 181.729 139.44C185.409 139.44 188.329 140.867 190.489 143.72C192.676 146.547 193.769 149.973 193.769 154C193.769 158.027 192.676 161.453 190.489 164.28C188.329 167.133 185.409 168.56 181.729 168.56ZM177.129 160.52C178.303 162.28 179.836 163.16 181.729 163.16C183.649 163.16 185.169 162.28 186.289 160.52C187.436 158.733 188.009 156.56 188.009 154C188.009 151.413 187.436 149.253 186.289 147.52C185.169 145.733 183.649 144.84 181.729 144.84C179.809 144.84 178.276 145.733 177.129 147.52C175.983 149.253 175.409 151.413 175.409 154C175.409 156.56 175.983 158.733 177.129 160.52ZM201.092 155.24C200.106 155.24 199.279 154.907 198.613 154.24C197.946 153.547 197.613 152.707 197.613 151.72C197.613 150.76 197.946 149.947 198.613 149.28C199.279 148.613 200.106 148.28 201.092 148.28C202.053 148.28 202.866 148.613 203.533 149.28C204.226 149.947 204.573 150.76 204.573 151.72C204.573 152.707 204.226 153.547 203.533 154.24C202.866 154.907 202.053 155.24 201.092 155.24ZM201.092 168.44C200.106 168.44 199.279 168.107 198.613 167.44C197.946 166.747 197.613 165.907 197.613 164.92C197.613 163.96 197.946 163.147 198.613 162.48C199.279 161.813 200.106 161.48 201.092 161.48C202.053 161.48 202.866 161.813 203.533 162.48C204.226 163.147 204.573 163.96 204.573 164.92C204.573 165.907 204.226 166.747 203.533 167.44C202.866 168.107 202.053 168.44 201.092 168.44ZM220.44 168.56C217.96 168.56 215.787 167.867 213.92 166.48C212.107 165.12 210.72 163.36 209.76 161.2C208.827 159.04 208.36 156.64 208.36 154C208.36 151.387 208.814 149.013 209.72 146.88C210.68 144.64 212.094 142.84 213.96 141.48C215.854 140.12 218.014 139.44 220.44 139.44C224.12 139.44 227.04 140.867 229.2 143.72C231.387 146.547 232.48 149.973 232.48 154C232.48 158.027 231.387 161.453 229.2 164.28C227.04 167.133 224.12 168.56 220.44 168.56ZM215.84 160.52C217.014 162.28 218.547 163.16 220.44 163.16C222.36 163.16 223.88 162.28 225 160.52C226.147 158.733 226.72 156.56 226.72 154C226.72 151.413 226.147 149.253 225 147.52C223.88 145.733 222.36 144.84 220.44 144.84C218.52 144.84 216.987 145.733 215.84 147.52C214.694 149.253 214.12 151.413 214.12 154C214.12 156.56 214.694 158.733 215.84 160.52ZM248.643 168.56C246.163 168.56 243.99 167.867 242.123 166.48C240.31 165.12 238.923 163.36 237.963 161.2C237.03 159.04 236.563 156.64 236.563 154C236.563 151.387 237.017 149.013 237.923 146.88C238.883 144.64 240.297 142.84 242.163 141.48C244.057 140.12 246.217 139.44 248.643 139.44C252.323 139.44 255.243 140.867 257.403 143.72C259.59 146.547 260.683 149.973 260.683 154C260.683 158.027 259.59 161.453 257.403 164.28C255.243 167.133 252.323 168.56 248.643 168.56ZM244.043 160.52C245.217 162.28 246.75 163.16 248.643 163.16C250.563 163.16 252.083 162.28 253.203 160.52C254.35 158.733 254.923 156.56 254.923 154C254.923 151.413 254.35 149.253 253.203 147.52C252.083 145.733 250.563 144.84 248.643 144.84C246.723 144.84 245.19 145.733 244.043 147.52C242.897 149.253 242.323 151.413 242.323 154C242.323 156.56 242.897 158.733 244.043 160.52Z" fill="#101010"/>
<path d="M128.221 115.872H127.393V113.196H128.185C128.705 112.468 129.077 111.616 129.301 110.64C129.533 109.648 129.649 108.304 129.649 106.608V105.6H134.833V113.196H136.105V115.872H135.277V114H128.221V115.872ZM129.181 113.196H133.945V106.404H130.525V106.968C130.525 109.832 130.077 111.908 129.181 113.196ZM137.9 108.96C138.484 108.36 139.236 108.06 140.156 108.06C141.076 108.06 141.828 108.36 142.412 108.96C142.996 109.544 143.288 110.26 143.288 111.108C143.288 111.956 142.996 112.672 142.412 113.256C141.82 113.848 141.068 114.144 140.156 114.144C139.244 114.144 138.492 113.848 137.9 113.256C137.316 112.672 137.024 111.956 137.024 111.108C137.024 110.26 137.316 109.544 137.9 108.96ZM142.4 111.108C142.4 110.468 142.188 109.928 141.764 109.488C141.34 109.056 140.804 108.84 140.156 108.84C139.508 108.84 138.972 109.056 138.548 109.488C138.124 109.928 137.912 110.468 137.912 111.108C137.912 111.74 138.124 112.276 138.548 112.716C138.972 113.148 139.508 113.364 140.156 113.364C140.804 113.364 141.34 113.148 141.764 112.716C142.188 112.276 142.4 111.74 142.4 111.108ZM148.061 108.204H148.925V110.592L151.685 108.204H152.861L149.801 110.82L153.293 114H152.057L148.925 111.144V114H148.061V108.204ZM156.392 113.364C156.792 113.364 157.172 113.272 157.532 113.088C157.892 112.904 158.184 112.672 158.408 112.392V111.588C157.816 111.204 157.188 111.012 156.524 111.012C155.996 111.012 155.576 111.116 155.264 111.324C154.96 111.532 154.808 111.816 154.808 112.176C154.808 112.552 154.956 112.844 155.252 113.052C155.548 113.26 155.928 113.364 156.392 113.364ZM156.152 114.144C155.536 114.144 155.012 113.976 154.58 113.64C154.156 113.288 153.944 112.816 153.944 112.224C153.944 111.64 154.168 111.172 154.616 110.82C155.064 110.476 155.632 110.304 156.32 110.304C157.072 110.304 157.768 110.492 158.408 110.868V110.292C158.408 109.324 157.772 108.84 156.5 108.84C155.82 108.84 155.188 109.036 154.604 109.428V108.588C155.172 108.236 155.864 108.06 156.68 108.06C157.472 108.06 158.1 108.248 158.564 108.624C159.036 108.992 159.272 109.52 159.272 110.208V112.596C159.272 112.82 159.32 112.996 159.416 113.124C159.52 113.252 159.656 113.316 159.824 113.316C159.952 113.316 160.064 113.292 160.16 113.244V113.916C160.032 114.004 159.84 114.048 159.584 114.048C159.296 114.048 159.052 113.972 158.852 113.82C158.66 113.66 158.54 113.428 158.492 113.124C157.908 113.804 157.128 114.144 156.152 114.144ZM163.676 114H162.812V108.96H160.712V108.204H165.776V108.96H163.676V114ZM169.724 114.144C168.82 114.144 168.06 113.86 167.444 113.292C166.836 112.732 166.532 112.004 166.532 111.108C166.532 110.244 166.804 109.52 167.348 108.936C167.9 108.352 168.608 108.06 169.472 108.06C169.936 108.06 170.348 108.156 170.708 108.348C171.068 108.532 171.352 108.776 171.56 109.08C171.768 109.384 171.924 109.708 172.028 110.052C172.132 110.388 172.184 110.728 172.184 111.072V111.312H167.42C167.468 111.936 167.716 112.436 168.164 112.812C168.62 113.18 169.196 113.364 169.892 113.364C170.564 113.364 171.184 113.184 171.752 112.824V113.592C171.28 113.96 170.604 114.144 169.724 114.144ZM167.432 110.604H171.308C171.284 110.156 171.116 109.752 170.804 109.392C170.508 109.024 170.052 108.84 169.436 108.84C168.86 108.84 168.388 109.016 168.02 109.368C167.66 109.728 167.464 110.14 167.432 110.604ZM175.911 114H175.047V108.96H172.947V108.204H178.011V108.96H175.911V114ZM181.958 114.144C181.054 114.144 180.294 113.86 179.678 113.292C179.07 112.732 178.766 112.004 178.766 111.108C178.766 110.244 179.038 109.52 179.582 108.936C180.134 108.352 180.842 108.06 181.706 108.06C182.17 108.06 182.582 108.156 182.942 108.348C183.302 108.532 183.586 108.776 183.794 109.08C184.002 109.384 184.158 109.708 184.262 110.052C184.366 110.388 184.418 110.728 184.418 111.072V111.312H179.654C179.702 111.936 179.95 112.436 180.398 112.812C180.854 113.18 181.43 113.364 182.126 113.364C182.798 113.364 183.418 113.184 183.986 112.824V113.592C183.514 113.96 182.838 114.144 181.958 114.144ZM179.666 110.604H183.542C183.518 110.156 183.35 109.752 183.038 109.392C182.742 109.024 182.286 108.84 181.67 108.84C181.094 108.84 180.622 109.016 180.254 109.368C179.894 109.728 179.698 110.14 179.666 110.604ZM186.905 113.076V116.4H186.041V108.204H186.905V109.128C187.449 108.416 188.197 108.06 189.149 108.06C190.005 108.06 190.705 108.356 191.249 108.948C191.793 109.54 192.065 110.256 192.065 111.096C192.065 111.944 191.793 112.664 191.249 113.256C190.705 113.848 190.005 114.144 189.149 114.144C188.197 114.144 187.449 113.788 186.905 113.076ZM186.905 110.148V112.056C187.073 112.44 187.345 112.756 187.721 113.004C188.097 113.244 188.505 113.364 188.945 113.364C189.593 113.364 190.125 113.148 190.541 112.716C190.965 112.268 191.177 111.728 191.177 111.096C191.177 110.464 190.965 109.928 190.541 109.488C190.125 109.056 189.593 108.84 188.945 108.84C188.513 108.84 188.109 108.964 187.733 109.212C187.357 109.452 187.081 109.764 186.905 110.148ZM194.474 114H193.67V108.204H194.534V112.728L198.242 108.204H199.046V114H198.182V109.488L194.474 114ZM202.936 114.144C202.096 114.144 201.384 114.012 200.8 113.748V112.908C201.448 113.212 202.124 113.364 202.828 113.364C203.42 113.364 203.884 113.272 204.22 113.088C204.564 112.896 204.736 112.632 204.736 112.296C204.736 111.992 204.596 111.756 204.316 111.588C204.036 111.42 203.652 111.336 203.164 111.336H202.156V110.58H203.164C203.612 110.58 203.948 110.504 204.172 110.352C204.404 110.2 204.52 109.996 204.52 109.74C204.52 109.14 203.976 108.84 202.888 108.84C202.24 108.84 201.604 108.972 200.98 109.236V108.432C201.532 108.184 202.224 108.06 203.056 108.06C203.72 108.06 204.276 108.2 204.724 108.48C205.172 108.76 205.396 109.128 205.396 109.584C205.372 109.96 205.28 110.244 205.12 110.436C204.96 110.62 204.74 110.772 204.46 110.892C205.244 111.148 205.636 111.636 205.636 112.356C205.636 112.892 205.388 113.324 204.892 113.652C204.404 113.98 203.752 114.144 202.936 114.144ZM209.337 113.364C209.737 113.364 210.117 113.272 210.477 113.088C210.837 112.904 211.129 112.672 211.353 112.392V111.588C210.761 111.204 210.133 111.012 209.469 111.012C208.941 111.012 208.521 111.116 208.209 111.324C207.905 111.532 207.753 111.816 207.753 112.176C207.753 112.552 207.901 112.844 208.197 113.052C208.493 113.26 208.873 113.364 209.337 113.364ZM209.097 114.144C208.481 114.144 207.957 113.976 207.525 113.64C207.101 113.288 206.889 112.816 206.889 112.224C206.889 111.64 207.113 111.172 207.561 110.82C208.009 110.476 208.577 110.304 209.265 110.304C210.017 110.304 210.713 110.492 211.353 110.868V110.292C211.353 109.324 210.717 108.84 209.445 108.84C208.765 108.84 208.133 109.036 207.549 109.428V108.588C208.117 108.236 208.809 108.06 209.625 108.06C210.417 108.06 211.045 108.248 211.509 108.624C211.981 108.992 212.217 109.52 212.217 110.208V112.596C212.217 112.82 212.265 112.996 212.361 113.124C212.465 113.252 212.601 113.316 212.769 113.316C212.897 113.316 213.009 113.292 213.105 113.244V113.916C212.977 114.004 212.785 114.048 212.529 114.048C212.241 114.048 211.997 113.972 211.797 113.82C211.605 113.66 211.485 113.428 211.437 113.124C210.853 113.804 210.073 114.144 209.097 114.144ZM220.746 115.716H219.918V114H214.506V108.204H215.37V113.244H218.814V108.204H219.678V113.244H220.746V115.716ZM222.963 114H222.159V108.204H223.023V112.728L226.731 108.204H227.535V114H226.671V109.488L222.963 114ZM230.381 114H229.577V108.204H230.441V112.728L234.149 108.204H234.953V114H234.089V109.488L230.381 114ZM237.391 109.608C237.215 109.608 237.067 109.548 236.947 109.428C236.827 109.308 236.767 109.16 236.767 108.984C236.767 108.808 236.827 108.66 236.947 108.54C237.067 108.42 237.215 108.36 237.391 108.36C237.567 108.36 237.715 108.42 237.835 108.54C237.955 108.66 238.015 108.808 238.015 108.984C238.015 109.16 237.955 109.308 237.835 109.428C237.715 109.548 237.567 109.608 237.391 109.608ZM237.391 114.072C237.215 114.072 237.067 114.012 236.947 113.892C236.827 113.772 236.767 113.624 236.767 113.448C236.767 113.272 236.827 113.124 236.947 113.004C237.067 112.884 237.215 112.824 237.391 112.824C237.567 112.824 237.715 112.884 237.835 113.004C237.955 113.124 238.015 113.272 238.015 113.448C238.015 113.624 237.955 113.772 237.835 113.892C237.715 114.012 237.567 114.072 237.391 114.072Z" fill="#77787B"/>
<defs>
<filter id="filter0_d_245_2893" x="104" y="196" width="157" height="60" filterUnits="userSpaceOnUse" color-interpolation-filters="sRGB">
<feFlood flood-opacity="0" result="BackgroundImageFix"/>
<feColorMatrix in="SourceAlpha" type="matrix" values="0 0 0 0 0 0 0 0 0 0 0 0 0 0 0 0 0 0 127 0" result="hardAlpha"/>
<feMorphology radius="3" operator="erode" in="SourceAlpha" result="effect1_dropShadow_245_2893"/>
<feOffset dy="7"/>
<feGaussianBlur stdDeviation="5.5"/>
<feColorMatrix type="matrix" values="0 0 0 0 0.513726 0 0 0 0 0.717647 0 0 0 0 0.34902 0 0 0 0.47 0"/>
<feBlend mode="normal" in2="BackgroundImageFix" result="effect1_dropShadow_245_2893"/>
<feBlend mode="normal" in="SourceGraphic" in2="effect1_dropShadow_245_2893" result="shape"/>
</filter>
<linearGradient id="paint0_linear_245_2893" x1="119.5" y1="207.5" x2="253" y2="212.5" gradientUnits="userSpaceOnUse">
<stop stop-color="#83B759"/>
<stop offset="1" stop-color="#609B25"/>
</linearGradient>
</defs>
</svg>
